<?xml version="1.0" encoding="UTF-8"?><svg id="Ebene_2" xmlns="http://www.w3.org/2000/svg" viewBox="0 0 45.59 21.89"><g id="Elements"><path d="m33.68,15.52c-1.01.54-2.02,1.07-3.02,1.62-.39.21-.78.41-1.18.61-1.01.51-2.06,1.04-2.93,1.73-.29.23-.42.81-.54,1.37-.04.17-.07.34-.12.51.16.06.33.12.5.19.5.2,1.06.42,1.34.3.87-.36,1.73-.72,2.6-1.08,4.24-1.76,8.62-3.57,12.69-5.77,1.66-.9,2.57-2.02,2.57-3.16h0c0-1.14-.91-2.26-2.56-3.16-4.83-2.62-9.97-4.86-14.94-7.03-.96-.42-1.93-.84-2.89-1.27-.95-.42-1.85-.5-2.4-.22-.36.18-.59.5-.7.98-.13.57.69,1.93,1.59,2.58,1.3.95,2.77,1.74,4.18,2.51.6.33,1.2.65,1.79.99l.62.35-.64.31c-1.73.85-3.3.89-4.83.94l-2.77.1c-6.52.24-13.27.5-19.89.87-.8.04-2.04.85-2.12,1.28-.07.41-.03.72.15.95.35.46,1.2.59,2.07.66.68.05,1.38.06,2.07.06h.8c8.83.14,17.66.28,26.48.41h3.41l.34,1.48s-1.67.89-1.67.89Z"/></g></svg>