<?xml version="1.0" encoding="UTF-8"?><svg id="Ebene_2" xmlns="http://www.w3.org/2000/svg" viewBox="0 0 216.3 156.3"><defs><style>.cls-1{fill-rule:evenodd;}</style></defs><g id="_Слой_1"><path class="cls-1" d="m170.25,39.34c-.05.09-.09.22-.16.25-1.46.61-2.93,1.2-4.37,1.84-.45.2-.83.56-1.18.8-.41-.4-.72-.7-1.02-.99-.1.02-.2.04-.3.06.52,2.31-1.47,2.02-2.53,2.63-1.5.86-3.1,1.52-4.6,2.38-1.24.71-2.39,1.59-3.58,2.4.62.78,1.17,1.48,1.55,1.96.95-.26,1.65-.44,2.35-.64.26-.07.62-.14.72-.32.52-1.04,1.66-.89,2.48-1.35.69-.39,1.38-.77,2.1-1.09.42-.19.91-.2,1.33-.38,1.43-.63,2.87-1.26,4.26-1.98,2.73-1.42,5.35-3.05,8.15-4.3,2.58-1.16,5.33-1.96,8.01-2.87.42-.14.91-.06,1.36-.08.09.11.17.22.25.33-.41.66-.83,1.31-1.39,2.21,1.47-.66,2.79-1.25,4.15-1.86.13.25.28.54.44.85-1.09.62-2.14,1.21-3.42,1.94.63.31.97.48,1.4.69-.52,1.08-1.45,1.62-2.4,2.1-1.56.79-3.15,1.52-4.72,2.28-.21.1-.4.24-.5.46,2.15-.42,4.22-1.44,6.35.64,1.49-.79,3.1-1.66,4.72-2.5.31-.16.68-.21,1.01-.35.28-.12.54-.29.81-.43.87-.47,1.74-.91,2.59-1.4.8-.47,1.55-1.04,2.37-1.48,1.66-.88,3.36-1.71,5.05-2.54.21-.1.46-.15.69-.15.27,0,.54.09.81.14-.06.31-.03.7-.2.93-.28.36-.66.72-1.07.88-1.05.41-2.17.63-3.21,1.07-1.25.54-2.42,1.27-3.64,1.87-2.02.98-4.07,1.9-6.09,2.9-1.18.58-2.31,1.27-3.48,1.87-.92.47-1.75.93-2.49,1.75-1.2,1.34-2.93,1.94-4.69,2.36-.29.07-.59.19-.85.33-2.25,1.23-4.49,2.47-6.74,3.7-2.21,1.2-4.44,2.37-6.65,3.56-1.61.86-3.21,1.74-4.81,2.61-.2.11-.42.18-.67.28-.22-.35-.42-.66-.61-.98.39,1.28-.38,1.63-1.3,2.08-1.39.66-2.67,1.54-4.01,2.3-1.57.89-3.16,1.73-4.74,2.61-.79.45-1.54.97-2.34,1.41-1.11.6-2.26,1.15-3.38,1.74-1.1.57-2.2,1.13-3.29,1.72-3.03,1.64-6.08,3.26-9.09,4.96-1.58.88-3.07,1.94-4.63,2.85-.92.53-1.95.88-2.87,1.4-1.09.62-2.12,1.35-3.18,2.02-.28.18-.55.38-.86.48-.63.21-.75.59-.49,1.27.28-.14.53-.27.78-.38,3.36-1.52,6.73-3.02,10.08-4.58,1.13-.52,2.17-1.22,3.31-1.74.62-.28,1.35-.35,2.03-.51.33-.3.69-.81,1.19-1.07,2.08-1.08,4.22-2.04,6.3-3.13,2.25-1.18,4.44-2.48,6.7-3.66,2.14-1.12,4.31-2.18,6.48-3.23.93-.45,1.89-.81,2.82-1.25.45-.21.82-.59,1.27-.78.79-.33,1.65-.5,2.4-.9.83-.44,1.54-1.1,2.36-1.57.79-.46,1.45-1.09,2.54-1.09.63,0,1.25-.79,1.88-1.21.33-.22.67-.43,1.03-.59.3-.14.66-.15.95-.31,1.82-1.02,3.59-2.16,5.46-3.09,2.5-1.26,5.09-2.34,7.62-3.55.63-.3,1.16-.8,1.77-1.16.47-.28,1-.51,1.29.26l-.03-.02c-.85.53-1.66,1.12-2.54,1.57-1.83.94-3.69,1.79-5.54,2.69-.87.42-1.71.94-2.62,1.25-.8.27-1.37,1.31-2.45.8-.07-.03-.45.6-.71.94.4.09.8.38,1.37-.14.54-.49,1.3-.79,2.01-1.05,1.73-.65,3.5-1.2,5.23-1.85,1.67-.63,3.31-1.33,4.96-1.99.09-.04.19-.06.29-.08,1.75-.42,3.49-.87,5.24-1.26,1.03-.23,1.73-.03,2.39.48-.06.72,0,1.34-.18,1.9-.15.48-.52,1.23-.84,1.25-1.19.07-1.62.98-2.22,1.7-.64.78-1.36,1.11-2.4,1.23-.93.11-1.81.77-2.7,1.22-1.71.85-3.42,1.69-5.1,2.59-1.34.71-2.64,1.49-3.96,2.26-1.02.59-2.05,1.15-3.02,1.81-.4.28-.63.81-.94,1.22.07.08.13.16.2.25.76-.37,1.54-.7,2.27-1.11,1.84-1.04,3.65-2.15,5.5-3.17,2.21-1.22,4.44-2.4,6.68-3.56,1.01-.52,1.36-.26,1.34,1.02,2.25-.41,4.02-2.25,6.61-2.22-.18.43-.23.83-.44.96-.9.59-1.82,1.18-2.79,1.63-2.28,1.06-4.61,2.02-6.89,3.08-.36.16-.57.62-.87.92-1.18,1.17-2.62,1.84-4.16,2.4-1.37.49-2.67,1.16-4.3,1.87.24-.61.38-.96.63-1.58-1.16.6-2.12,1.08-3.06,1.6-.1.05-.07.34-.1.51.15-.01.35.03.46-.05.53-.33,1.04-.69,1.55-1.05.1.04.19.08.28.12-.1.27-.14.68-.33.78-1.62.83-3.28,1.58-4.91,2.38-1.32.65-2.62,1.36-3.94,2.02-1.38.68-2.77,1.32-4.14,2.01-.17.08-.24.36-.39.6.98-.12,1.86-.22,2.86-.34-.34,1.3-.88,2.04-2.06,2.16-.19.02-.38.11-.55.2-.95.45-1.76,1.07-3.02.61-.59-.22-1.53.48-2.29.79-1.35.55-2.69,1.12-4.05,1.67-.68.28-1.37.54-2.07.77-.46.15-.95.22-1.59.37-.12.12-.34.5-.68.67-4.03,2.02-8.09,3.99-12.12,6.01-1.66.83-3.24,1.81-4.91,2.6-.91.43-1.76.96-2.65,1.41-.3.15-.7.12-.93.31-.64.4-1.28.8-1.92,1.19-.53.33-1.03.7-1.58.99-1.35.7-2.76,1.3-4.08,2.05-1.06.59-2,1.4-3.06,2-1.85,1.07-3.78,2.02-5.63,3.09-2.03,1.17-4,2.46-6.02,3.64-1.05.62-2.19,1.08-3.25,1.7-1.5.88-2.94,1.86-4.44,2.74-1.9,1.12-3.83,2.17-5.75,3.25-.03.02-.08,0-.1.03-.59,1-1.75,1.26-2.55,2-.53.5-1.23.81-1.91,1.24.02.1.07.3.11.5-.14.03-.23.08-.26.06-.64-.47-1.61-.29-2.34.26-1.16.88-2.38,1.68-3.61,2.46-.48.31-1.04.48-1.56.73-.11.05-.27.16-.28.25-.04,1.29-1.2,1.06-1.91,1.45-.3.17-.54.46-.83.64-1.56.95-3.05,2.14-4.73,2.75-1.5.55-2.43,1.74-3.73,2.45-.49.27-.98.52-1.51,1.06.34,0,.72.1,1.02,0,1.37-.46,2.77-.85,3.91-1.84.29-.25.78-.28,1.24-.26-2.17,1.97-4.7,3.16-7.48,3.89-.89.24-1.33-.18-1.77-1.03-1,.64-1.97,1.25-2.93,1.86-.63.4-1.24.82-1.88,1.2-2.62,1.56-5.29,3.05-7.87,4.69-2.34,1.49-4.56,3.16-6.88,4.68-.73.48-1.6.83-2.45,1.06-1.47.4-2.82.94-4.05,1.88-.82.63-1.86.97-2.75,1.52-.81.51-1.53,1.16-2.33,1.7-1.4.94-2.83,1.83-4.23,2.77-.84.56-1.44,1.55-2.62,1.46-.39-.03-.77-.21-1.16-.32.23-.32.4-.75.71-.94,2.08-1.27,4.2-2.5,6.31-3.73.64-.37,1.35-.63,1.97-1.02.55-.34,1.03-.79,1.62-1.25-.81-.55-1.83.55-2.33-.83,4.28-2.34,8.32-5.19,12.63-7.51.52-.42,1.01-.87,1.56-1.24,1.39-.92,2.81-1.81,4.21-2.71-.05-.08-.1-.17-.16-.25-.87.44-1.75.86-2.6,1.33-1.15.64-2.26,1.36-3.41,1.99-.49.27-1.06.51-1.61.55-.32.03-.67-.36-1-.57.17-.25.28-.58.51-.73,2.61-1.65,5.38-3.06,7.76-5.07.45-.38,1.09-.52,1.59-.85.69-.45,1.24-.94,1.76-1.71.84-1.26,2.3-2.1,3.5-3.11.06-.05.24.02.46.05-.3.52-.56.97-.86,1.49,1.56.37,1.96-1.44,3.28-1.6-.09.29-.15.5-.31,1.01.41-.35.79-.5.81-.7.1-.97.93-1.28,1.56-1.67,2.2-1.35,4.45-2.61,6.68-3.92,1.37-.8,2.75-1.61,4.11-2.43,1.03-.62,2.05-1.25,3.06-1.89.61-.38,1.17-.85,1.81-1.18.3-.16.73-.06,1.11-.08.04.09.07.19.11.29-1.35.89-2.68,1.79-4.04,2.67-1.34.86-2.71,1.68-4.04,2.64.48.24,1,.31.42.94,1.5-1.94,3.51-2.7,5.83-3.45.32-.28.85-.8,1.45-1.21.1-.07.51.29.68.4.52-.5,1.05-1.02,1.65-1.59.59.7,1.01.63,1.26-.3.08-.3.3-.68.56-.79.81-.35,1.84-.29,2.26-1.32.02-.04.12-.06.19-.06,2.25.14,3.64-1.69,5.49-2.46.58-.24.96-.97,1.48-1.53.04.03.2.13.36.23.15-.68.15-.67.86-.61.15,0,.36-.08.44-.19.86-1.19,2.27-1.54,3.42-2.28,1.59-1.02,3.27-1.9,5.13-2.96-.2.63-.34,1.07-.48,1.5.05.03.09.06.14.08.26-.46.43-1.18.82-1.33.67-.26.85-.88,1.34-1.24.06-.04.29.14.45.23.05-.19.1-.38.15-.56.1,0,.19-.03.21,0,.43.65.95.64,1.16-.05.4-1.34,1.56-1.38,2.56-1.72.24-.08.61-.15.69-.33.71-1.65,2.24-1.59,3.68-1.87.04.25.08.46.14.78.22-.2.48-.34.47-.46-.03-.78.47-1.43,1.18-1.75,1.12-.51,2.3-.97,3.07-2.03.29-.4.48-1.03,1.24-.43.13.1.91-.59,1.36-.94.44-.34.82-.74,1.28-1.05.18-.12.53-.13.73-.03.77.36,1.11.06,1.29-.68.05-.21.31-.36.47-.54.15.17.29.33.41.46,1.22-.75,2.48-1.52,3.85-2.36-.02-.09-.1-.39-.22-.92.67.12,1.21.21,1.87.33.07-.14.22-.45.39-.8.21.13.38.24.34.21.57-.39.98-.68,1.42-.95,1.5-.93,2.98-1.89,4.5-2.77,1.22-.7,2.5-1.3,3.75-1.95.95-.49,1.86-1.27,2.76-1.56,1.58-.5,2.57-1.88,4.19-2.28,1.05-.26,1.93-1.14,2.94-1.64.7-.34,1.49-.5,2.25-.74.09-.03.2-.05.28-.1,1.05-.7,2.08-1.42,3.14-2.1.36-.23.79-.34,1.12-.62,1.08-.63,2.15-1.28,3.25-1.88.91-.51,1.85-.97,2.79-1.43.35-.17.77-.22,1.11-.42,1.29-.76,2.53-1.61,3.83-2.33,1.36-.75,2.79-1.36,4.16-2.1,1.11-.6,2.14-1.34,3.23-1.97,1.37-.79,2.75-1.57,4.16-2.3.31-.16.73-.13,1.23-.2.05-.16.13-.44.27-.95-1.47.63-2.78,1.2-4.09,1.76-.05-.1-.1-.2-.15-.3.31-.21.65-.38.92-.63.81-.73,1.75-1.02,2.84-1.18.75-.11,1.45-.62,2.17-.97,1.36-.65,2.75-1.25,4.06-2,1.37-.77,2.66-1.68,3.92-2.71-.52.19-1.06.33-1.55.57-1.84.9-3.64,1.85-5.48,2.72-.77.36-1.59.62-2.4.88-.23.07-.52-.04-.83-.07-.11.23-.25.56-.44.99-.26-.29-.44-.49-.62-.69-.06.03-.11.07-.17.1.07.22.14.43.24.73-1.17.07-1.97,1.4-3.44.93-.19.4-.4.87-.65,1.41.21.11.42.23.63.35-.02.09-.02.19-.06.21-1.74.82-3.48,1.64-5.23,2.43-.26.12-.6.09-.9.13-.05-.44-.1-.88-.2-1.66-.37.48-.58.75-.79,1.02.34.2.68.4,1.02.61-.57.32-1.13.67-1.72.95-1.34.63-2.7,1.23-4.07,1.81-.16.07-.39-.04-.65-.08-.93,1.17-3.52,2.23-4.24,1.5.38.99-.3,1.21-.86,1.48-1.02.49-2.05.95-3.08,1.41-1.04.46-2.11.83-3.12,1.35-1.29.66-2.51,1.44-3.78,2.11-.56.3-1.24.38-1.76.73-.94.62-1.94,1.04-2.69,2.08s-2.2,1.57-3.48,2.14c.72-.57,1.45-1.14,2.17-1.71l-.09-.21c-.53.21-1.08.37-1.57.64-2.75,1.53-5.48,3.08-8.21,4.63-1.28.73-2.56,1.47-3.84,2.2-.47.27-.94.52-1.12.01-.26.32-.51.85-.94,1.12-1.75,1.13-3.56,2.18-5.34,3.25-.25.15-.55.25-.87.39-.18-.27-.34-.5-.55-.82-.53.34-1.03.66-1.58,1.02.38.1.67.17.95.25.04.09.08.18.12.27-1.02.49-2.05.98-3.07,1.46.16-.23.32-.46.47-.69-.06-.07-.12-.15-.19-.22-.51.22-1.02.44-1.54.66.04.12.08.25.12.37.38-.05.77-.1,1.15-.15-.37.33-.7.73-1.11.98-2.25,1.36-4.51,2.68-6.78,4.01-.13.08-.3.09-.74.21.55-.52.89-.84,1.22-1.16-.05-.09-.1-.19-.16-.28-.32.17-.64.33-.95.51-.34.2-.68.41-1.02.63-.53-1.2-.35-1.48.82-1.87.53-.17.97-.6,1.47-.87.18-.1.58-.18.62-.11.21.35.33.75.53,1.25.11-.11.54-.33.54-.56.02-1.53,1.25-1.98,2.24-2.64.39-.26.8-.48,1.2-.73.34-.22.65-.64.98-.66,1.52-.08,2.39-1.17,3.43-2.01.24-.19.49-.43.77-.48,1.4-.24,2.15-1.42,3.21-2.15.28-.19.64-.26.93-.44,1.47-.92,2.93-1.87,4.41-2.78,1.53-.95,3.08-1.86,4.61-2.79.5-.3.97-.63,1.48-.91,1.18-.67,2.39-1.31,3.55-2,.19-.11.25-.44.47-.86-1.19.11-2.08.4-2.81,1.17-.26.27-.64.65-.95.63-2.06-.11-3.55,1.15-5.19,2.04-1.89,1.02-3.79,2.02-5.67,3.07-.82.46-1.58,1.01-2.34,1.65.35-.07.7-.14,1.03-.21-.16.33-.34.67-.45.89-.33.02-.66.03-.95.04-.07-.18-.14-.39-.22-.61-.48.42-1,.8-1.43,1.27-.25.28-.35.69-.52,1.05-.1-.04-.2-.09-.3-.13.11-.3.21-.6.35-1.01-.26.03-.53-.02-.65.09-.74.69-2.07.74-2.26,2.05-.02.17-.45.46-.52.42-1.22-.76-1.73.6-2.61.9.19,0,.39-.02.59-.03-.39.54-1.3.87-1.89.86-.27,0-.55.31-.89.52-.05-.04-.25-.19-.4-.3.32-.4.63-.79.94-1.18-.1-.1-.19-.2-.29-.3-1.7,1.04-3.52,1.87-5.06,3.16.04.07.08.15.12.22.59-.23,1.18-.46,1.77-.68.06.11.12.23.18.34-.79.49-1.58.98-2.54,1.58.18-2.08.97-3.22,2.81-3.79,1.09-.34,2.03-1.23,3-1.93.47-.34.76-.38,1.26.13-.3.28-.6.57-.89.85,1.13-.39,2.57-.24,3.21-1.88-.75.35-1.32.61-1.88.87-.05-.1-.1-.21-.15-.31,1-.63,2.01-1.27,3.01-1.9-.06-.11-.11-.23-.17-.34-1.97.15-3.47,1.63-5.42,2.12-.03-.6-.05-1.18-.08-1.76l-.19-.19c-.14.2-.43.43-.4.59.32,1.5.05,1.87-1.3,2.55-1.5.76-2.92,1.69-4.37,2.56-1.75,1.05-3.5,2.11-5.24,3.17-.57.35-1.12.71-1.55-.09-.31.67-.61,1.3-.9,1.94h-.4c.27.4.54.8.76,1.12-5.88,3.28-11.92,6.65-18.03,10.07.04-.25.07-.43.11-.68-.46.33-1.14.56-1.27.96-.44,1.3-1.71,1.41-2.61,2.01-1.78,1.17-3.61,2.27-5.45,3.34-1.33.78-2.76,1.4-4.08,2.19-1.95,1.17-3.86,2.41-5.78,3.63-.43.27-.84.56-1.25.84.05.07.1.15.14.22.79-.47,1.56-1,2.38-1.41.92-.47,1.9-.8,2.82-1.26.91-.44,1.8-.93,2.67-1.44,1.09-.64,2.17-1.31,3.23-2,.71-.46,1.36-1.01,2.08-1.44.53-.31.86-1.07,1.79-.68.28.12.94-.65,1.41-1.02.2-.17.35-.42.57-.55,2.24-1.29,4.48-2.56,6.73-3.82.17-.1.41-.07.64-.11-.12,2.11-2.07,2.25-3.19,3.23-.49.43-1.17.64-1.73,1-.16.1-.16.43-.28.62-.14.22-.33.4-.64.76v-1.24c-.41.45-.76.65-.8.9-.17,1.22-.7.93-1.34.39.12-.15.24-.29.48-.58-1.73.26-1.23,2.26-2.41,2.67-.2-.33-.41-.66-.65-1.07-.56,1.14-1.68,1.74-2.7,1.43-.01.34-.02.66-.05.97-.02.19-.06.38-.09.56-.17-.12-.35-.24-.56-.4-.23.13-.52.29-.81.45.14.18.26.34.38.49-.18.11-.36.23-.55.32-.7.33-1.41.65-2.11.99-.02.01.06.24.38.62-.67.27-1.34.53-2.06.81-.16-.45-.25-.73-.35-1.01h-.15c-.02.47-.04.94-.07,1.5-.25-.08-.55-.16-.84-.25.06.08.12.16.18.25-.4.35-.77.76-1.22,1.05-.88.55-1.8,1.05-2.73,1.54-1.3.69-2.63,1.32-3.93,2.02-1.82.99-3.54,2.25-5.46,2.95-1.7.62-2.77,2.03-4.42,2.81-.02-.4-.03-.71-.05-1.03-.07-.04-.14-.08-.21-.12-.17.22-.49.45-.49.67,0,1.15-.78,1.67-1.6,2.15-1.68.99-3.36,1.98-5.07,2.92-.56.31-1.19.51-1.81.66-.28.07-.78,0-.92-.19-.47-.65-.85-.44-1.45-.18-.97.42-2.07.52-3.04.93-1.03.44-1.97,1.1-2.95,1.66-1.24.72-2.46,1.47-3.73,2.14-.23.12-.61-.06-.92-.1-.04-.14-.07-.28-.11-.42,1.46-.9,2.91-1.8,4.37-2.71,1.45-.89,2.85-1.87,4.36-2.65,1.49-.77,2.45-2.4,4.31-2.72.21-1.32,1.61-1.49,2.58-2.12,1.99-1.29,4.02-2.53,6.06-3.75,1.44-.86,2.92-1.65,4.37-2.51.96-.57,1.86-1.23,2.82-1.81,2.4-1.45,4.82-2.88,7.23-4.32.26-.16.5-.34.76-.51,1.31-.86,2.62-1.72,3.93-2.58,1.11-.73,2.22-1.44,3.31-2.19.22-.15.34-.45.66-.89-.42.1-.61.11-.75.19-1.9,1.04-3.79,2.09-5.68,3.15-1.71.96-3.4,1.94-5.09,2.92-1.63.95-3.25,1.89-4.87,2.86-2.24,1.34-4.46,2.7-6.69,4.05-.43.26-.85.56-1.3.79-.24.13-.54.15-.81.22-.03-.27-.07-.54-.09-.82,0-.12.04-.25.06-.37-.09-.03-.18-.07-.27-.1-.13.38-.44.81-.35,1.12.22.71-.08.99-.63,1.25-1.5.69-2.98,1.41-4.5,2.07-.29.12-.79.09-1.05-.08-.8-.51-1.43-.2-2.17.17-.92.46-1.91.8-2.88,1.14-.24.09-.55.08-.8.02-.24-.06-.61-.23-.63-.37-.02-.24.13-.61.33-.75,1.26-.9,2.56-1.75,3.85-2.62.22-.15.4-.33.6-.5-.05-.08-.11-.16-.17-.24-.47.27-.94.54-1.4.83-.81.52-1.62.79-2.66.63-.52-.07-1.16.41-1.69.74-1.66,1.06-3.3,2.15-4.92,3.25-.73.5-1.41,1.06-2.12,1.59-.8.6-1.53.53-2.11-.3.62-.39,1.23-.79,1.86-1.17,1.14-.67,2.29-1.34,3.44-1.99,1.09-.62,2.21-1.21,3.29-1.86.44-.26.8-.65,1.22-.95,1.1-.8,2.43-1.39,3.28-2.4,1.75-2.09,4.25-2.98,6.33-4.52,1.84-1.36,3.64-2.76,5.49-4.1,1.29-.93,2.52-2.14,3.98-2.58,1.31-.39,1.85-1.54,3.03-1.99,1.13-.42,2.1-1.28,3.14-1.95,1.61-1.04,3.23-2.06,4.83-3.11,1.1-.73,2.16-1.52,3.29-2.21.33-.21.81-.18,1.08-.36.68-.45,1.33-.97,2.05-1.35,1.21-.64,2.47-1.21,3.71-1.8-.08-.97.59-.87,1.28-.76-.52-.99-1.27-.77-1.86-.44-1.78,1.02-3.52,2.11-5.26,3.21-1.21.77-2.37,1.62-3.6,2.37-.53.32-1.16.52-1.76.66-.58.13-1.17.13-1.23-.76,0-.17-.53-.48-.67-.42-.59.27-1.14.66-1.7,1-.77.48-1.53.97-2.3,1.43-1.53.9-3.07,1.78-4.6,2.69-1.36.81-2.69,1.66-4.05,2.46-1.04.61-2.16,1.11-3.18,1.75-2.42,1.52-4.8,3.09-7.19,4.66-1.36.9-2.65,1.92-4.05,2.75-.91.54-1.96.89-2.98,1.2-.85.25-1.34-.25-1.31-1.2-.6.03-1.2.06-1.89.09-.42,1.4-1.87,1.68-3.03,2.28-1.37.7-2.78,1.31-4.2,1.89-.32.13-.83.07-1.15-.09-.53-.27-.68-.69,0-1.02,1.17-.55,2.37-1.04,3.5-1.66.44-.24.89-.71,1.06-1.17.52-1.4,1.88-1.79,2.91-2.51,1.81-1.27,3.77-2.31,5.65-3.47,1.24-.77,2.43-1.6,3.68-2.36,1.62-.98,3.27-1.91,4.9-2.87.16-.09.3-.22.45-.34-.05-.09-.11-.18-.16-.27-.26.05-.53.16-.79.15-.57-.04-1.13-.17-1.7-.2-.56-.02-1.24-.15-1.69.09-3.69,1.97-7.33,4.04-11,6.02-.55.3-1.23.38-1.86.49-1.08.19-2.17.38-3.26.47-.51.05-1.05-.14-1.57-.18-.39-.03-.8.06-1.19,0-.47-.06-.94-.22-1.4-.33v-.38c.73-.45,1.46-.9,2.2-1.33,1.62-.95,3.27-1.84,4.86-2.83,2-1.24,3.96-2.54,5.93-3.83,1.72-1.12,3.41-2.28,5.14-3.39.36-.23.84-.28,1.26-.42.17-.06.42-.1.49-.23.63-1.2,1.92-1.47,2.93-2.12.83-.53,1.7-1,2.55-1.51,1.18-.71,2.36-1.42,3.61-2.18.04.33.08.6.12.87.08,0,.16.02.24.03.06-.4.12-.8.18-1.19.51-.42,1.03-.88,1.58-1.29.27-.19.64-.41.92-.36.17.03.27.53.44.91.65-.37,1.35-.77,2.05-1.16-.04-.09-.08-.18-.12-.26-.47.13-.94.27-1.7.49.35-.74.57-1.2.82-1.72-1.67.19-2.66,1.94-4.44,1.78,3.69-2.31,7.38-4.62,11.12-6.96,0-.26-.02-.55-.04-.78.38-.21.72-.39,1.06-.58-.05-.1-.1-.2-.15-.29-1.31.65-2.62,1.31-3.98,1.98-.1-.28-.21-.56-.31-.84.04,1.77-1.44,1.96-2.52,2.54-1.57.84-3.13,1.7-4.72,2.5-1.62.81-3.29,1.51-4.9,2.34-1.17.61-2.26,1.37-3.41,2.03-.95.54-1.94,1.02-2.92,1.53-.62.32-1.26.59-1.85.95-3.06,1.89-6.11,3.81-9.16,5.72-.31.19-.57.47-.87.66-1.57,1-3.15,1.99-4.72,2.99.03.09.05.17.08.26.33-.04.68,0,.98-.12,1.02-.38,2.06-.75,3.02-1.25,3.55-1.84,7.09-3.7,10.59-5.62,1.79-.98,3.49-2.13,5.25-3.17.6-.36,1.28-.59,1.91-.92,1.37-.74,2.73-1.51,4.1-2.25.3-.16.66-.23.99-.34l.15.3c-.83.49-1.65,1-2.5,1.46-2.87,1.57-5.77,3.07-8.6,4.7-1.88,1.08-3.63,2.41-5.5,3.52-2.23,1.33-4.5,2.58-6.8,3.79-1.03.55-2.12,1.05-3.25,1.32-.68.17-1.51-.06-2.22-.28-.49-.15-.51-.59-.03-.92.96-.66,1.93-1.33,2.89-2,.08-.05.23-.1.24-.16.16-1.34,1.3-1.86,2.32-2.58-.46-.39-.81-.69-1.31-1.11,1.45-.99,2.82-1.92,4.2-2.86-.06-.1-.13-.19-.19-.29-.9.55-1.78,1.15-2.71,1.66-1.94,1.07-3.88,2.12-5.86,3.11-.7.35-1.43.25-1.98-.62,2.51-1.18,4.53-2.96,6.62-4.46-.27-.6-.5-1.12-.8-1.79-.84.09-2.01.68-3.19-.33,1.11-1.23,2.27-2.25,3.98-2.42l-.03-.02c-.27.4-.55.8-.99,1.45,1.92-.87,3.63-1.59,5.21-2.67,1.51-1.03,3.17-1.83,4.76-2.73.06.09.12.17.18.25-1.71,1.28-3.42,2.55-5.14,3.83.06.1.12.21.17.31.68-.76,1.81.04,2.55-1.12.48-.75,1.64-1.07,2.51-1.55,1.73-.95,3.5-1.85,5.22-2.83.44-.25.72-.78,1.15-1.07,1.09-.73,2.15-1.54,3.34-2.04,2.14-.89,3.91-2.41,6.09-3.24,1.12-.43,2.04-1.32,3.1-1.92.94-.53,1.97-.92,2.93-1.42.43-.23.76-.63,1.18-.88,1.98-1.17,3.97-2.3,5.96-3.46.72-.42,1.4-.91,2.14-1.31.82-.44,1.67-.79,2.51-1.19.09-.04.18-.1.24-.18,1.52-1.8,3.73-2.61,5.61-3.88.82-.55,1.83-.83,2.75-1.23.06.09.12.18.18.27-.09.25-.17.49-.26.73.11.03.21.06.32.09.06-.33.18-.65.18-.98,0-.58.1-.96.7-1.29,1.91-1.05,3.77-2.21,5.64-3.34.96-.58,1.78-1.32,3.03-1.43.58-.05,1.09-.81,1.65-1.22.36-.27.76-.48,1.15-.72.07.07.14.13.21.2.09-.36.17-.73.31-1.31-4.37,2.49-8.52,4.85-12.72,7.24.03-.25.05-.41.07-.58-.07-.09-.14-.17-.21-.26-1.56,1.76-3.35,3.19-5.63,4.03.23-.38.42-.71.62-1.04-.03-.08-.06-.15-.08-.23-.59.26-1.18.52-1.78.78-.03-.05-.07-.09-.1-.14.15-.21.31-.43.5-.7-.25.01-.46.02-.67.03-.04-.05-.08-.1-.13-.15.09-.04.18-.07.26-.1,2.06-.73,3.76-2.3,6.02-2.57.19-.02.38-.1.54-.2.89-.5,1.78-1.01,2.67-1.53,1.25-.73,2.48-1.47,3.75-2.16.26-.14.63-.1,1.01-.15,0-.13.02-.34.02-.26,1.17-.65,2.18-1.24,3.22-1.77.47-.24,1.01-.54,1.5-.5.75.06,1.08-.27,1.43-.83.8-1.29.83-1.28,2.69-1.23-.03-.22-.05-.44-.09-.81.53-.16,1.14-.34,1.86-.56,0,.02.02-.17.02-.23,2.65-.4,4.43-2.68,7.06-3.23.23-1.09,1.28-1.11,2.22-1.29-.05-.08-.09-.17-.14-.25.49-.29.99-.58,1.48-.86.97-.56,1.93-1.16,2.92-1.68.81-.42,1.69-.72,2.51-1.11.35-.17.63-.48.98-.67,1.54-.87,3.09-1.72,4.62-2.59.48-.28.95-.58,1.35-.96,1.04-.96,1.25-1.03,2.58-.51-.64-.85-.08-.96.49-1.3,1.4-.85,2.71-1.84,4.05-2.78-.04-.08-.09-.16-.13-.24-.48.1-.97.2-1.45.3-.03-.09-.05-.18-.08-.26.29-.2.57-.4.96-.68-1.38-.26-1.62-.08-1.6,1.02.01.58-1.3,1.39-2.21,1.34-.24-1.3,1.67-.6,1.65-1.83-.34.13-.61.23-.95.36.03-.47.06-.88.08-1.29-.12-.02-.23-.04-.35-.06-.1.5-.2,1-.32,1.65-.37.23-1.1.44-.79,1.42.05.16-.4.58-.69.74-1.54.8-3.11,1.57-4.67,2.33-1.3.63-2.61,1.23-3.91,1.85.08-.29.17-.58.32-1.06-.49.24-.82.36-1.1.56-.15.1-.21.32-.31.49.16.08.33.24.49.22.21,0,.42-.16.63-.24-.55.88-1.48,1.11-2.44,1.5.13-.45.22-.76.31-1.07-.27,0-.54.02-.8.04.08.1.15.2.23.3-.16.37-.21.89-.49,1.07-1.02.63-2.12,1.15-3.48,1.86-.21.57-.67.76-1.66.44-.15-.05-.59.23-.59.37-.05.79-.6.96-1.2,1.15-.49.16-.97.4-1.42.65-1.44.8-2.85,1.64-4.29,2.43-1.21.67-2.43,1.3-3.73,1.99-.13-.18-.29-.4-.48-.67-.72.63-1.4,1.22-2.34,2.04-.07.72-.73.82-1.64.32-.09,1.08-1.73,2.1-2.56,1.76-.33.33-.58.7-.93.89-2.4,1.32-4.82,2.61-7.29,3.94,0-.28.02-.53.02-.77-.08-.05-.15-.11-.23-.16-.19,1.05-.72,1.74-1.71,2.03-.85.25-1.46,1.25-2.48.93-.29.34-.54.82-.93,1.04-1.73.95-3.52,1.78-5.24,2.73-.85.48-1.6,1.15-2.26,1.93.5-.18,1.01-.33,1.49-.54,1.29-.57,2.85-.54,3.8-1.85.16-.22.6-.31.91-.3.16,0,.46.35.45.53-.02.24-.21.57-.42.69-1.81.99-3.65,1.95-5.48,2.91-.37.19-.75.36-1.2.58-.05-.69.14-1.54-1.1-1.57.18.21.3.33.38.46.51.83.42,1.43-.42,1.91-1.64.92-3.31,1.78-4.97,2.66-1.75.93-3.53,1.79-5.23,2.8-2.6,1.55-5.11,3.26-7.74,4.78-.9.52-2.01.68-3.25,1.07.41-1.01.72-1.66,1.69-1.83.48-.08.89-.52,1.34-.8-.07-.16-.15-.33-.22-.49-.98.32-2.04.48-2.93.97-3.44,1.93-6.84,3.93-10.21,5.97-1.81,1.1-3.52,2.37-5.32,3.49-.74.46-1.58.75-2.39,1.08-.26.1-.64.19-.87.08-1.57-.76-2.58.33-3.71,1.05-.78.5-1.56,1.02-2.38,1.45-.9.47-1.59.27-1.78-.89-1.11.28-2.22.81-3.33-.31.53-.39.97-.8,1.49-1.08,1.02-.56,2.08-1.05,3.13-1.55.5-.24,1.02-.44,1.53-.65.15-.06.36-.06.48-.16.75-.66,1.48-1.33,2.3-2.08.22.43.35.68.51,1,.31-.23.59-.44.93-.69-.21-.14-.34-.23-.51-.34.56-.42,1.1-.85,1.66-1.23.49-.34.98-.67,1.51-.92.39-.18.85-.23,1.27-.34.03.08.05.16.08.24-.73.43-1.47.87-2.21,1.3,2.37-.19,3.89-1.92,5.82-2.92-.05-.11-.1-.22-.15-.33-.39.16-.78.31-1.16.47-.02-.04-.04-.08-.05-.11.68-.5,1.36-1,2.29-1.68-.17.58-.26.87-.36,1.2,1.61,0,2.54-1.13,3.64-1.96-.05-.09-.1-.19-.15-.28-.33.16-.66.33-1,.49-.05-.06-.09-.13-.14-.19.87-.62,1.74-1.25,2.61-1.88.09.1.19.21.28.31-.42.4-.84.8-1.27,1.2.04.06.08.13.12.19.75-.34,1.51-.69,2.44-1.12-.4-.34-.61-.52-.92-.77,1.23-.74,2.44-1.46,3.66-2.19.08.12.17.25.25.37-.36.26-.73.53-1.09.79-.19.14-.39.29-.56.45-.02.02.13.2.2.31.17-.11.34-.25.52-.34,1-.49,2.04-.93,3.02-1.47,1.17-.64,2.33-1.33,3.44-2.08.38-.25,1.13-.6.24-1.32.52-.31.94-.57,1.41-.86.33.5.62.96.92,1.42.08-.03.17-.05.25-.08-.09-.56-.18-1.11-.27-1.66.05-.02.09-.05.14-.07.12.18.24.36.45.69.26-.51.48-.94.73-1.43.26.09.53.18.8.28.04-.04.09-.09.12-.14.24-.37.42-.78.71-1.09.25-.26.64-.36.94-.57.74-.52,1.46-1.01,1.98.24.02.06.17.09.25.09.09,0,.18-.07.28-.11-.21-.43-.42-.85-.67-1.36,1.49-.86,2.91-1.68,4.33-2.5.04.08.08.15.12.23.16-.24.28-.51.48-.71.34-.33.35-.3-.02-.64-.09-.08-.15-.37-.1-.42.51-.43,1.03-.84,1.57-1.23.51-.37,1.05-.7,1.55-1.06s.97-.74,1.46-1.1c.08.11.17.23.25.34-.46.33-.92.65-1.37.98-.49.36-1.01.69-1.42,1.13-.19.2-.15.62-.27,1.2,2.44-1.51,4.53-2.83,6.63-4.13,2.34-1.44,4.68-2.87,7.04-4.26.42-.25.97-.28,1.55-.43.02-.43,1.53-1.61,2.53-1.44-.58.32-.99.55-1.39.78.01.06.02.12.04.18.23.02.45.04.69.05-.35.88-2.26,1.66-2.9,1.39-.62.59-1.13,1.19-1.75,1.64-1.04.76-2.07,1.68-3.26,2.06-1.3.42-2.29,1.34-3.55,1.75-.12.04-.28-.07-.46-.12.18,1.28.13,1.11,1.32.74,1.29-.39,2.43-.95,3.54-1.69.5-.33,1.11-.5,1.67-.75.25-.11.63-.18.71-.36.35-.9,1.04-.87,1.8-.72.27-1.24,1.37-1.46,2.24-1.9.55-.28,1.25-.26,1.83-.51.53-.24.99-.66,1.48-.99,1-.69,2-1.39,3.02-2.05.66-.42,1.36-.8,2.07-1.14.12-.06.37.17.44.21.78-.54,1.48-1.08,2.23-1.52,1.71-1,3.42-1.99,5.17-2.93,1.41-.76,2.87-1.43,4.31-2.15.2-.1.44-.19.58-.36,1.04-1.2,2.34-1.88,3.86-2.34,1.04-.32,1.95-1.07,2.9-1.66,1.13-.69,2.22-1.44,3.36-2.12,1.46-.88,2.92-1.75,4.41-2.56,1.94-1.05,3.91-2.04,5.87-3.06.06-.03.16-.04.18-.09.54-1.3,2.06-1.16,2.94-2,.39-.37,1.29.1,1.49-.78.05-.24.12-.47.23-.89-.95.44-1.69.79-2.44,1.12-.26.12-.54.22-.81.26-.06,0-.27-.35-.23-.47.12-.33.27-.79.53-.9,1.38-.55,3.05-.7,4.12-1.59.96-.8,2.08-.82,3.03-1.41.96-.59,2.06-.96,3.1-1.42.06-.03.16-.03.18-.07.47-1.15,1.72-.74,2.5-1.26.27-.18.48-.45.75-.65,1.09-.79,2.11-1.74,3.59-1.72.1,0,.19-.25.32-.33.38-.23.78-.42,1.25-.52.4-.65.93-1.07,1.81-.92.14.02.39-.04.44-.14.53-1,1.34-1.23,2.37-.82.39-1.18,1.14-1.86,2.28-2.26.56-.19.95-.87,1.48-1.39.25.29.41.48.52.6,1.07-.7,2.12-1.39,3.36-2.22.03.61.04.97.06,1.33.09.03.17.05.25.08.08-.27.11-.56.24-.8.17-.3.41-.55.63-.82.23-.28.48-.55.7-.81-1.28-.88-2.3.13-3.29.53-2.62,1.07-5.15,2.36-7.71,3.55-.24.11-.5.17-.84.28.4.91-.35,1.07-.9,1.3-.96.4-1.95.71-2.92,1.1-.74.3-1.46.65-2.26,1.01-.04-.3-.08-.56-.14-.95-.57.54-.26,1.76-1.46,1.48-.68-.79.13-1.25.56-1.8-.06-.09-.12-.17-.18-.26-2.79,1.22-5.57,2.44-8.36,3.66-.04.13-.09.26-.13.39.29.19.59.38.92.59-.19.14-.4.29-.63.46-.14-.25-.25-.46-.36-.66-.52.57-.99,1.1-1.47,1.62-.1-.04-.19-.08-.29-.13-.04-.31-.09-.61-.16-1.16-.59.4-1.1.74-1.68,1.13.31.15.58.29,1.11.56-1.04.45-2.01,1.28-2.67,1.07-2.05-.64-3.28.95-4.89,1.42-.37.1-.71.29-1.06.44-.09-.08-.17-.16-.26-.25.28-.39.58-.76.82-1.17.23-.39.4-.81.59-1.22-.09-.06-.17-.12-.26-.18-.25.09-.5.19-.75.28-.06-.07-.15-.14-.14-.16.28-.53,2.78-1.97,3.58-1.93-.75.65-1.39,1.2-2.19,1.89.02.02.17.29.39.37.25.09.56.02.61.02.55-.2.9-.34,1.26-.46.15-.05.41-.03.46-.13.4-.79,1.09-1.08,1.87-1.49,2.08-1.13,4.14-2.23,6.43-2.83.82-.21,1.5-.46,1.89-1.26.11-.23.32-.42.57-.74.16.35.25.57.42.96.25-.3.6-.51.63-.76.11-.86.66-.94,1.35-1,1.16-.11,2.15-.61,3.07-1.35.46-.37.8-.88,1.68-.78.61.07,1.31-.82,2-1.22.25-.15.6-.12,1.1-.21.22-.11.67-.35,1.12-.58.4-.2.84-.35,1.18-.62.59-.46,1.07-1.05,1.68-1.48.25-.18.7-.06,1.19-.08.25-1.09,1.37-1.27,2.34-1.66.99-.4,1.97-.83,2.96-1.24-.07-.17-.14-.34-.21-.51-3.22,1.05-6.21,2.66-9.36,4.04-.13-.59-.28-.93.66-1.12,1.19-.24,2.31-.89,3.43-1.42.2-.09.26-.47.39-.71-.24-.04-.53-.18-.71-.09-1,.47-1.96,1.02-2.95,1.49-1.49.72-3,1.41-4.51,2.11-.07.03-.19-.03-.29-.06.09-.71.07-1.41,1.06-1.58.33-.06.57-.64,1.03-1.2-1.13.28-1.97.5-2.81.71-.04-.09-.08-.17-.12-.26.27-.14.54-.41.8-.4.74.02,1.27-.22,1.89-.67s1.55-.54,2.36-.61c.84-.07,1.7.19,2.54.12.72-.06,1.42-.38,2.12-.61.44-.14.85-.35,1.29-.49,1.35-.43,2.71-.86,4.06-1.27.29-.09.6-.13.89-.15.77-.05,1.53-.08,2.27-.11-.26.7-.59,1.59-.96,2.58,1.19.3.58-1.64,1.73-1.34-.06.2-.13.41-.22.68.22.08.45.16.7.25-.06.14-.08.27-.15.3-.94.47-1.89.94-2.85,1.39-.8.38-1.6.77-2.42,1.11-.44.18-.94.41-1.39.38-1.11-.08-.92.74-1.12,1.33,3.98-1.42,7.89-2.88,11.39-5.21-.03-.1-.07-.19-.11-.29-.29.07-.58.15-.9.23.06-.31.11-.62.21-1.17-.62.26-1.05.44-1.49.63.13.3.27.59.45.98-.51-.29-.95-.56-1.46-.85.2-.44,3.42-2.29,4.63-2.44-.72.53-1.4,1.02-2.07,1.52.05.14.11.27.16.4.76-.22,1.53-.38,2.27-.66,1.87-.69,3.72-1.43,5.57-2.16.58-.23,1.16-.46,1.72-.71,1.98-.91,3.96-1.81,5.93-2.74,1.69-.8,3.36-1.68,5.06-2.47.63-.29,1.32-.45,2-.57.22-.04.5.23.75.36-.09.16-.13.41-.26.48-.81.43-1.64.83-2.47,1.21-2.93,1.3-5.87,2.56-8.79,3.89-1.35.61-2.63,1.35-3.96,2.01-.66.33-1.35.59-2.02.9-2.25,1.03-4.49,2.05-6.72,3.1-.45.21-.84.53-1.31.85.59.49,1.04.69,1.62.19.24-.2.61-.27.94-.34.8-.17,1.65-.24,2-1.27.07.19.14.37.27.73.33-.37.63-.71.88-.99.28-.03.67.06.88-.1.9-.66,1.7-1.47,2.63-2.06.68-.44,1.52-.66,2.31-.9.19-.06.49.23.74.36-.15.23-.24.58-.45.68-.75.38-1.55.65-2.31,1-.53.24-1.02.55-1.53.83.06.14.11.27.17.41.97-.36,1.95-.68,2.89-1.09,1.01-.43,1.99-.94,3.16-1.51-.04.56-.07.95-.1,1.33-.15-.21-.29-.41-.41-.57-1.59.85-3.09,1.65-4.6,2.44.07.11.13.22.2.33.37-.25.72-.56,1.12-.73,1.22-.52,2.46-.99,3.69-1.48.31-.09.66-.12.92-.28.27-.16.46-.45.68-.68-.07-.08-.15-.16-.22-.24-.29.09-.58.18-.88.27-.06-.08-.11-.16-.17-.23.44-.34.84-.75,1.33-1.01,1.36-.75,2.74-1.48,4.15-2.12.69-.31,1.5-.35,2.23-.61.99-.36,1.92-.86,2.91-1.21,1.08-.39,2.21-.63,3.29-1.03,1.04-.39,2.03-.91,3.05-1.35,1.08-.47,2.17-.93,3.27-1.35,1.38-.52,2.62-1.19,3.21-2.68-.35-.11-.68-.2-1-.3,0-.1,0-.19,0-.29.92-.1,1.84-.2,2.76-.3.08.08.15.16.23.24-.33.55-.67,1.09-1.03,1.69.2.08.46.17.78.29-.6,1.28-1.66,1.77-2.87,2.17-1.71.58-3.38,1.32-5.08,1.94-.39.14-.86.06-1.5.09-.49,1.02-1.58,1.68-2.82,2.3-2.98,1.48-5.86,3.16-8.79,4.72-1.45.77-2.95,1.46-4.4,2.21-.33.17-.6.46-.89.69.04.09.08.19.12.28.45-.1.94-.13,1.34-.33.59-.3,1.05-.27,1.51.27-.27.37-.54.75-.81,1.12.03.08.05.15.08.23.8-.32,1.6-.64,2.63-1.05-.51-.28-.85-.45-1.47-.79,3.47-.94,6.46-2.48,9.5-3.96.09.33.17.65.33,1.27.26-.54.52-.85.55-1.17.06-.67.39-.93,1.02-.99.9-.1,1.8-.24,2.8-.37.15-.56.47-1.03,1.27-.81.08.02.26-.09.32-.19.77-1.22,2.05-1.49,3.31-1.83.35-.09.65-.39,1-.45.33-.05.69.09.99.14-.59.59-1.05,1.06-1.59,1.61.51.23.81.36,1.13.5.28.74-1.49.93-.69,1.73,2.05-.79,4-1.55,6.07-2.35.16.98-.21,1.49-.78,1.77-1.68.83-3.41,1.58-5.11,2.37-.46.21-.92.42-1.37.65-.48.25-.88.48-1.48.08-.41-.27-1.07-.36-1.03.6,0,.23-.43.48-.83.61.04-.24.08-.47.12-.69-.09-.05-.12-.06-.15-.08-.51,1.36-1.93,1.57-3.09,2.29-.09-.06-.3-.19-.54-.33-.18.3-.33.55-.48.79-.08,0-.15-.02-.23-.02.02-.35-.02-.73.08-1.06.12-.41.35-.78.55-1.2.12,0,.33,0,.43.01.43-1.63,1.86-1.91,3.02-2.72-.27-.04-.55-.16-.81-.12-1.72.24-3.12,1.3-4.71,1.88-.93.34-1.83.75-2.71,1.17-.86.41-1.68.88-2.78,1.47,1.16.43,1.98.62,2.84.14.97-.54,1.94-1.06,2.92-1.57.22-.12.47-.18.94-.36-.31.97-.55,1.71-.82,2.54-.18-.03-.4-.06-.73-.12.13.32.22.55.36.9-2.21,1.04-4.36,2.25-6.66,3.04-.98.34-1.68,1.08-2.69,1.34-.46.12-.7.99-1.1,1.48-.7.87-1.63,1.31-2.66,1.76-3.2,1.39-6.34,2.94-9.47,4.47-1.08.53-2.09,1.18-3.28,1.86,1.84.37,3.06-.52,4.38-1.29,1.13-.66,2.43-1.03,3.66-1.52.15-.06.39-.02.48-.12,1.08-1.2,2.66-1.49,4-2.23,2.94-1.62,5.9-3.21,8.88-4.76,1.2-.62,2.45-1.2,3.74-1.61.76-.24,1.64-.11,2.62.08-.32.4-.57.93-.98,1.17-2.67,1.53-5.37,2.99-8.26,4.58.33-.62.57-1.05.8-1.49-.06-.06-.13-.12-.19-.19-.74.34-1.49.68-2.24,1.01-.65.29-1.2.9-2.04.6-.09-.03-.33.12-.4.25-.57,1.04-1.62,1.17-2.61,1.47-.41.13-.75.49-1.15.67-1.7.76-3.42,1.48-5.11,2.26-.35.16-.63.48-.94.72.14.34.2.68.39.92.14.18.49.36.67.3,1.2-.42,2.43-.8,3.53-1.4,1.28-.69,2.44-1.6,3.68-2.38.96-.6,1.95-1.14,2.96-1.73.86.46.07.81-.42,1.38,1.3-.44,2.33-.79,3.35-1.14.38-.13.75-.38,1.14-.42.36-.04.75.11,1.12.18-.17.3-.31.61-.5.89-.35.5-.73.97-1.01,1.57.86-.49,2.12.15,2.67-1.21.18-.43.95-.63,1.48-.9,1.06-.54,2.12-1.12,3.22-1.57.57-.23,1.24-.2,1.87-.29l-.03-.02c-.88.57-1.74,1.17-2.64,1.69-.52.3-1.1.48-1.72.74.1.25.18.47.33.85-1.21-.56-1.87.14-2.68.67-1,.65-2.18,1.02-3.26,1.56-1.77.87-3.56,1.73-5.29,2.67-1.03.56-2,1.24-2.95,1.92-.24.18-.31.6-.47.9-.37-.22-.72-.43-1.18-.7-.06.54-.12,1.01-.18,1.6.6-.41.97-.66,1.34-.91,1.06-.46,2.1-.95,3.17-1.38.46-.19,1-.2,1.45-.41.63-.29,1.19-.73,1.81-1.05,2.17-1.12,4.37-2.21,6.53-3.34,1.04-.54,2.03-1.17,3.06-1.73.32-.17.7-.25,1.05-.34.71-.18,1.46-.26,2.12-.53.86-.36,1.63-.91,2.48-1.3.88-.41,1.78-.88,2.72-1.04,1.25-.21,2.55-.16,4-.22-.44,1.06-.94,1.65-1.78,1.86-.77.2-1.56.34-2.33.57-.38.11-.93.28-1.04.56-.38.99-1.3,1.06-2.05,1.45-.87.44-1.7.95-2.55,1.42-1.03.58-2.07,1.16-3.1,1.74-.08-.08-.15-.17-.24-.25.49-.47.95-1.29,1.47-1.34,1.07-.09,1.3-.65,1.46-1.61-.4.23-.76.37-1.04.6-.74.6-1.63.78-2.51,1.01-.34.09-.8.27-.94.55-.56,1.08-1.57,1.09-2.55,1.43-1.87.66-3.62,1.67-5.38,2.6-1.66.88-3.26,1.87-4.91,2.76-3.02,1.64-6.07,3.22-9.08,4.87-.45.25-.8.67-1.15.98.35.83.6,1.55,1.64,1,.2-.11.64.24,1,.38.02,0,.13-.04.13-.07-.02-1.38,1.13-1.59,2.03-2.06.68-.35,1.32-.78,2.02-1.1,1.19-.54,2.42-1.01,3.62-1.53.2-.09.36-.27.54-.41.32-.24.65-.49.98-.72.24-.17.49-.31.75-.48.14.11.34.27.54.42.08-.23.11-.51.26-.67.32-.35.7-.65,1.07-.94.44-.34.89-.65,1.34-.96.21-.14.41-.31.65-.37.61-.16,1.24-.26,2.03-.42.34-.57,1.04-.84,2.11-.81-.11-.29-.21-.54-.31-.79.05-.19,2.29-1.14,2.56-1.11l-.02-.02c-.06.22-.12.43-.19.67,1.17-.49,2.28-.98,3.4-1.43.46-.19.96-.27,1.43-.45.58-.23,1.13-.56,1.72-.75,1.11-.36,2.23-.68,3.35-.95.51-.12,1.06-.06,1.55-.09-.42.83-1.91,1.71-3.39,2.25-1.33.48-2.59,1.19-3.87,1.81-.66.32-1.29.75-1.98.98-.95.31-1.66.8-2.13,1.69-.29.55-.68,1.05-1.19,1.83.58-.12,1.2-.07,1.41-.33.68-.9,1.27-.72,1.96-.09.07.07.18.09.27.13l-.03-.02v-.03Zm-108.28,36.76c-.25.51-.49,1.01-.74,1.52.07.01.15.03.22.05.43-.35.85-.69,1.27-1.03-.25-.17-.52-.36-.79-.55.46.1.77-.02.53-.54-.11-.23-.41-.4-.65-.52-.07-.04-.4.26-.39.28.16.28.35.53.55.8h0Zm84.7,7.44c-1.04-.65-1.5-.55-2.35.51.78.71.88-.25,1.27-.51.3.29.66.28,1.07-.01.54-.19,1.08-.38,1.72-.61.05-.23.13-.6.21-.96-.09-.05-.18-.1-.27-.15-.54.58-1.09,1.16-1.64,1.74h-.01Zm-105.53,20.69c.43-.36.86-.72,1.45-1.21-1.45-.04-5.97,2.77-6.49,4.02.75-.48,1.31-.92,1.93-1.19.31-.14.76-.04,1.13.04.23.05.41.33.64.41.09.03.4-.29.38-.33-.12-.26-.32-.49-.57-.85.49-.28,1.02-.59,1.55-.9-.13.39-.26.79-.49,1.47,1.2-.78,2.15-1.4,3.1-2.02-.03-.04-.05-.08-.08-.12-.85.23-1.7.46-2.56.69h.01Zm25.44,24.55c-.23.05-.49.04-.68.15-1.9,1.05-3.8,2.11-5.69,3.18-.26.15-.48.35-.72.53.07.09.14.19.21.28.31-.08.65-.09.91-.25,1.15-.67,2.29-1.37,3.4-2.09.87-.57,1.7-1.21,2.55-1.81,1.13-.22,2.09-.73,3.04-1.4,1.47-1.04,3.04-1.95,4.59-2.9.28-.17.63-.35.94-.35.85.02.74-.45.66-.94-1.06-.22-1.5.56-2.17,1.05-.97.71-2.2,1.06-3.23,1.71-1.33.85-2.95,1.34-3.8,2.84h-.01Zm65.27-75.66c-.33-.04-.73-.22-.97-.09-2.34,1.29-4.66,2.63-6.99,3.97-.13-.27-.22-.45-.2-.4-.39.58-.79,1.17-1.19,1.77.85-.25,1.58-.67,2.31-1.09,1.14-.66,2.27-1.32,3.4-1.99,1.21-.72,2.42-1.44,3.63-2.17.55-.23,1.11-.42,1.63-.7.77-.41,1.52-1.25,2.26-1.24,1.18,0,1.99-.46,2.84-1.08.91-.68,1.83-1.33,2.77-2.01-.16-.3-.3-.54-.5-.9-1.69.94-3.33,1.81-4.94,2.74-1.19.69-2.37,1.43-3.5,2.21-.28.2-.39.66-.58.98h.03Zm-73.49,24.15c1.01.17,1.97-.33,2.24-1.4-.74.47-1.48.95-2.22,1.42-.23.04-.48.04-.67.14-4.16,2.41-8.31,4.85-12.48,7.25-1.62.93-3.31,1.72-4.9,2.69-1.8,1.1-3.51,2.34-5.28,3.48-.34.22-.92.14-1.19.41-.48.46-.82,1.08-1.43,1.93,1.99-1.1,3.76-2.08,5.53-3.05.68-.67,1.42-1.3,2.24-1.77,1.9-1.09,3.9-2,5.74-3.17,1.63-1.03,3.18-2.15,5.06-2.7.11-.03.19-.17.3-.23.37-.2.75-.38,1.25-.64.25-.27.56-.88,1-1,.36-.1.88.39,1.33.62.11-.03.21-.06.32-.1-1.06-.81-.78-1.16.15-1.43.53-.15,1.07-.43,1.48-.79.57-.49,1.02-1.11,1.52-1.68v.02Zm.14,15.3c-.57,0-1.19-.13-1.68.06-.87.33-1.69.82-2.49,1.31-1.28.78-2.53,1.61-3.81,2.41-.79.49-1.59.96-2.38,1.43-.05-.07-.11-.15-.16-.23-.26.52-.88,1.05.08,1.5-.24.37-.45.68-.7,1.08.95-.09.93-.09.91-.84,0-.24.11-.57.28-.72.77-.63,1.58-1.2,2.49-1.88.11.52.18.82.31,1.43,1.66-1.06,3.17-2.04,4.69-3.01-.05-.1-.1-.19-.15-.29-1.18.57-2.36,1.15-3.54,1.72.12-.36.32-.58.56-.71,1.3-.71,2.62-1.38,3.91-2.11.59-.33,1.13-.76,1.69-1.14.39-.18.77-.36,1.15-.54-.05-.26-.09-.5-.17-.91.36.21.57.34.78.47.49-.35,1.05-.36,1.5-.59,1.21-.61,2.37-1.33,3.57-1.98,1.17-.63,2.36-1.23,3.55-1.84.39-.2.82-.34,1.16-.61,1.88-1.49,3.9-2.71,6.22-3.39.22-.06.43-.16.62-.29,1.06-.7,2.09-1.45,3.17-2.1.21-.13.62.09.97.15.23-.27.44-.65.76-.85,1.42-.89,2.83-1.8,4.32-2.55,1.59-.81,3.12-1.67,4.6-2.66.98-.65,2.02-1.21,2.97-1.77.15.18.31.37.46.56.08-.18.14-.38.24-.55.15-.23.31-.48.52-.64.42-.33.87-.62,1.33-.91,1.25-.78,2.51-1.54,3.82-2.34.15.36.24.57.21.51.46-.44.95-.98,1.52-1.42.95-.74,2.25-.89,3.08-1.91.28-.34,1.05-.28,1.43-.37.49-.36.95-.98,1.32-.93,1.24.17,2.16-.12,2.54-1.1.45-1.16,2.21-2.23,3.13-2.09,2.58-2.4,5.72-3.58,8.51-5.28,2.72-1.66,5.54-3.15,8.67-4.92.37-.29,1.08-.86,1.78-1.43-.7.09-1.29.31-1.87.56-1.14.5-2.3.95-3.39,1.53-1.24.66-2.41,1.47-3.64,2.16-1.01.57-2.06,1.06-3.08,1.61-1.32.71-2.63,1.46-3.95,2.16-.65.35-1.35.61-1.99.96-1.66.9-3.29,1.85-4.95,2.74-.61.32-1.34.45-1.91.83-.9.61-1.69,1.4-2.58,2.03-.33.23-.82.24-1.32.36-.27.18-.66.49-1.09.72-.35.19-.77.26-1.1.47-1.29.82-2.55,1.68-3.84,2.5-.37.24-.79.4-1.2.57-.3.13-.62.22-1.21.42-.27.22-.76.76-1.37,1.05-.36.17-.92-.05-1.45-.1-.2,1.38-1.48,1.8-2.47,2.38-1.97,1.14-4.09,2.01-6.09,3.1-1.5.83-2.88,1.88-4.36,2.75-2.24,1.31-4.51,2.56-6.78,3.81-.3.17-.68.18-.97.35-.33.19-.58.52-.91.72-.83.51-1.68.96-2.52,1.46-1.5.89-3.09,1.67-4.46,2.73-1.8,1.39-4.52,1.71-5.25,4.39h0Zm60.22-45.47c.05.87-.16,1.52-1.2,1.63-.31.03-.59.31-.88.49-1.88,1.12-3.74,2.28-5.65,3.36-2.28,1.29-4.56,2.59-6.91,3.73-.89.43-1.6,1.58-2.87,1-.1-.04-.36.21-.5.37-.48.5-.87,1.11-1.42,1.5-.82.59-1.75,1.03-2.64,1.54.06.11.12.23.18.34,2.58-.9,4.63-3.04,7.52-3.24-13.94,6.68-27.35,14.31-40.51,22.38.04.08.08.16.13.25.34-.14.68-.27,1.02-.4-.2.51-.38.99-.64,1.66.94-.84,1.56-1.63,2.37-2.06.7-.37,1.27-.46,1.73-.95.13-.14.4-.2.6-.19.52.01,1.03.08,1.87.15-1-1.21-.26-1.32.4-1.51.36-.11.69-.32,1.16-.54-.01,0,.14.1.29.21-.05-.09-.09-.18-.14-.26,1.21-.68,2.42-1.37,3.64-2.05.13.26.22.44.36.7.29-.29.5-.5.81-.82.02.44.03.72.05,1.09.6-.32,1.1-.59,1.64-.88-.28-.31-.47-.52-.56-.63.51-.35.97-.67,1.43-.98.21-.14.44-.28.67-.38.61-.28,1.44-.39,1.79-.86.64-.85,1.36-.69,1.86-.62.31-.48.5-1.09.76-1.12,1.48-.18,2.31-1.83,3.99-1.64.57.07,1.25-.57,1.84-.94.56-.35,1.07-.78,1.6-1.18.42-.24,1.29-.3,1.37-.58.33-1.14.94-1.02,1.77-.54-.29-.71.08-1.22.78-1.23.23,0,.51,0,.7-.1,1.44-.88,2.86-1.78,4.29-2.69,1.17-.74,2.64-.94,3.63-2.01.07-.07.24-.03.34-.08.3-.15.67-.24.87-.48.35-.42.63-.8,1.03-.47,1.37-.94,2.69-1.83,4.3-2.93-.82.04-1.35.06-1.87.09-.03-.11-.06-.21-.1-.32,1.14-.5,2.28-1.01,3.3-1.46.3.31.52.53.74.75.07-.07.13-.14.2-.21-.1-.3-.2-.6-.27-.83,1.65-.79,3.22-1.54,4.78-2.29.39-.19.77-.41,1.17-.59,1.86-.86,3.73-1.69,5.57-2.59.74-.36,1.41-.9,2.12-1.33.54-.33,1.1-.62,1.65-.93h0c3.51-1.94,7.02-3.87,10.8-5.95-.16.64-.23.94-.3,1.24.07.06.14.13.21.19.18-.2.49-.37.52-.6.11-.65.12-1.32.17-2-.02,0-.28,0-.52.1-.6.2-1.19.45-1.79.66-1.14.41-2.32.72-3.41,1.23-1.34.63-2.56,1.52-3.9,2.12-1.77.79-3.62,1.39-5.41,2.13-.66.28-1.24.75-1.86,1.13-.08-.08-.15-.17-.23-.25.65-.73,1.18-1.65,1.98-2.14,1.93-1.17,3.99-2.12,5.98-3.19,1.55-.84,3.05-1.75,4.59-2.58,1.3-.7,2.63-1.34,3.96-1.97.3-.14.67-.18,1.01-.22.63-.08,1.07-.34,1.19-.9-.76.13-1.47.14-2.09.38-1.49.6-2.97,1.25-4.4,1.99-2.15,1.11-4.25,2.33-6.39,3.47-.55.29-1.2.4-1.72.73-1.95,1.25-3.81,2.65-5.81,3.81-2.37,1.38-4.88,2.52-7.29,3.84-2.31,1.27-4.56,2.65-6.85,3.97-1.98,1.14-3.98,2.24-5.96,3.39-.25.14-.4.45-.6.68.07.08.14.15.22.23,1.31-.69,2.62-1.39,3.94-2.06,1.1-.56,2.2-1.1,3.32-1.61.29-.14.68-.09.95-.25,1.04-.6,2.06-1.24,3.08-1.87,2.14-1.33,4.29-2.67,6.43-4l-.02-.02h.04Zm-72.05,61.35c.21-.27.37-.62.65-.8,2.33-1.5,4.67-2.99,7.02-4.45.3-.19.66-.28,1-.41-.83,1.84-3.15,1.95-3.95,3.76.48-.07.93-.19,1.32-.41,1.74-1.02,3.44-2.1,5.19-3.1,1.86-1.07,3.77-2.05,5.64-3.11,2.8-1.59,5.57-3.23,8.37-4.81,1.46-.82,2.99-1.52,4.44-2.34,1.37-.78,2.68-1.68,4.05-2.46,2.95-1.7,5.92-3.36,8.89-5.04.23-.13.49-.33.73-.33s.48.21.72.34c-.05.1-.11.19-.16.29-.25-.09-.5-.18-.92-.33.67,1.37-.51.58-1.04,1.19h1.8c-.5.44-.8.7-1.1.96.07.1.13.2.2.3.46-.29.92-.58,1.44-.9-.12-.23-.39-.59-.33-.66.75-.89.72-2.36,2.15-2.78.61-.18,1.13-.65,1.81-1.06.14.07.42.22.96.48-.3.14-.47.22-.63.29.8-.11.85-.38.33-1.21.06-.07.12-.14.19-.21.29.27.57.54.94.89.52-.26,1.18-.62,1.85-.93.6-.28,1.27-.44,1.84-.78.2-.12.29-.59.27-.88-.03-.42-.21-.84-.33-1.25.06-.1.13-.2.19-.29.97,1.11,1.92,1.62,2.83.1-.48.14-.95.27-1.49.42.01-.23,0-.51.03-.52.66-.12,1.01-.77,1.76-.86.75-.09,1.5-.55,2.13-1.01.69-.5,1.14-1.35,1.87-1.76,1.85-1.05,3.8-1.94,5.71-2.88.61-.3,1.24-.54,1.83-.88.84-.48,1.63-1.05,2.46-1.54.39-.23.84-.37,1.49-.64-.08.37-.06.77-.24.94-.39.36-.88.61-1.34.89-.76.46-1.53.91-2.27,1.39-.05.04.04.31.09.56,3.53-1.89,6.94-3.73,10.46-5.61-.13.35-.16.87-.42,1.05-1.21.83-2.45,1.61-3.75,2.31-1.56.84-3.23,1.49-4.77,2.38-2.23,1.29-4.37,2.74-6.58,4.06-2.02,1.2-4.1,2.3-6.13,3.48-2.59,1.51-5.16,3.04-7.71,4.6-.33.21-.55.69-.68,1.1-.17.52-.32.83-.9.46-.15-.1-.33-.15-.38-.18-.17.39-.24.8-.47.99-.83.65-2.03.48-2.85,1.27-.38.36-1,.46-1.48.73-2.11,1.15-4.23,2.28-6.31,3.5-1.69,1-3.31,2.12-4.98,3.17-1.26.79-2.53,1.56-3.79,2.35-.91.57-1.81,1.15-2.71,1.72.06.12.12.24.18.36.43-.18.87-.35,1.29-.56.32-.15.61-.36.91-.55.24.39.67.8.65,1.18-.02.28-.61.55-.98.77-.23.14-.55.13-.77.27-.73.44-1.44.9-2.14,1.39-.18.13-.28.39-.41.59.23.08.51.29.67.23.78-.32,1.74-.53,2.23-1.12,1.45-1.73,3.68-2.1,5.36-3.4,1.01-.78,2.26-1.23,3.39-1.87,1.53-.86,3.04-1.75,4.57-2.62.08-.05.22-.11.28-.07.78.45.9-.33,1.31-.64.77-.58,1.63-1.04,2.47-1.53.06-.03.22.12.36.19-.1.28-.1.63-.28.77-1.06.8-2.12,1.6-3.24,2.32-1.13.72-2.33,1.32-3.49,2-.96.57-1.96,1.12-2.83,1.82-.85.68-1.99.81-2.79,1.56-.1.09-.52-.16-.93-.3-.99.5-.65,1.51-.53,2.46.06.02.14.07.19.05.64-.23,1.41-.26,1.33-1.32-.02-.32.57-.66,1.08-.34.01-.7.46-.8,1.03-.78.17,0,.47,0,.5-.08.4-1.19,1.75-.87,2.54-1.65,1.13-1.1,2.86-1.6,4.57-2.47-.34.41-.5.73-.77.89-1.9,1.17-3.84,2.29-5.73,3.47-.6.38-1.12.9-1.67,1.36-.07.2-.39.08-.57.2-.81.55-1.62,1.12-2.34,1.77-.42.38-.66.94-1.4.63-.14-.06-.57.23-.65.44-.32.83-1.09.93-1.75,1.23s-1.34.57-1.94.96c-.61.4-1.08,1.01-1.71,1.38-1.21.72-2.5,1.29-3.72,2-1.52.88-3,1.82-4.49,2.75-.15.09-.32.31-.31.46,0,.13.23.29.4.36.48.22.91.41,1.18-.36.12-.34.58-.66.96-.79.99-.34,1.64-1.28,2.87-1.29.68,0,1.35-.76,2.04-1.17,2.08-1.25,4.17-2.5,6.24-3.77.35-.21.59-.63.95-.77,2.02-.82,3.96-1.74,5.74-3.01.59-.42,1.19-.82,1.81-1.18,1.03-.6,2.1-1.14,3.13-1.73.83-.47,1.67-.93,2.44-1.48.83-.59,1.65-1.13,2.72-1.13.08,0,.17-.11.22-.19.96-1.6,2.79-2.03,4.14-3.1.53-.41,1.12-.74,1.69-1.1.96-.61,1.91-1.23,2.88-1.83,1.17-.73,2.36-1.45,3.54-2.17.58-.39,1.1-.9,1.71-1.28.48-.3,1.05-.45,1.59-.66.02.48.04.97.07,1.45,0,.05.08.1.12.14.1.01.2.02.3.04.02-.4.13-.83.04-1.21-.15-.66-.06-1.01.63-1.34,1.04-.49,2.36-.63,2.8-2.03.08-.25.59-.38.91-.55.66-.34,1.31-.7,1.99-1.02.34-.16.72-.23,1.26-.41.46-.43,1.13-1.05,1.8-1.68.08.44.12.78.23,1.1.01.04.43.02.6-.08.74-.46,1.47-.95,2.19-1.44.03-.02.02-.1.02-.15-.28-.06-.56-.11-.84-.17-.05-.1-.1-.2-.14-.29,1.23-.88,2.45-1.77,3.71-2.61.12-.08.62.15.69.34.24.6.87.58,1.14.46.79-.37,1.49-.95,2.23-1.43,1.16-.75,2.31-1.54,3.51-2.24,3.25-1.88,6.53-3.71,9.78-5.59.6-.34,1.11-.84,1.66-1.26-1.41.07-2.75.24-3.88,1.12-.24.18-.63.16-1.09.27-.18.65-1.28,1.43-2.46,1.49.13-.28.25-.53.39-.83-.83-.17-1.12.03-1.02.87.04.33-.21.86-.5,1.05-1.58,1.03-3.21,1.97-4.82,2.95-.81.49-1.61.97-2.42,1.46-.08-.12-.16-.24-.24-.36,2.23-1.56,4.46-3.13,6.68-4.69-.27-.3-.38-.37-.45-.34-1.8.79-3.65,1.47-5.37,2.41-1.45.79-2.68,1.94-4.1,2.79-1.89,1.13-3.88,2.07-5.79,3.16-.97.56-1.85,1.28-2.74,1.9-.36-.28-.59-.46-.82-.64-.05.04-.1.09-.16.14.12.27.25.54.41.89-.55.24-1.06.46-1.56.68-.01-.05-.03-.1-.04-.15.23-.24.45-.49.68-.73-.74.22-1.25.68-1.84.96-.58.27-1.22.38-1.43,1.03.06.09.12.17.17.26.53-.28,1.05-.57,1.58-.86.05.1.1.2.15.29-1.83,1.04-3.67,2.08-5.5,3.13-.07-.09-.14-.18-.22-.28.88-.6,1.75-1.2,2.63-1.8-.64-.02-1.25-.07-1.68.18-.74.43-1.33,1.11-2.06,1.58-1.15.75-2.34,1.42-3.53,2.09-.25.14-.61.08-.84.23-.94.6-1.91,1.18-2.77,1.89-1.19.99-3.06.72-3.95,2.23-.05.09-.23.1-.65.26.25-.66.29-1.32.62-1.53,1.26-.79,2.63-1.42,3.93-2.15.32-.18.53-.58.85-.76,1.52-.87,3.05-1.72,4.59-2.55.91-.49,1.89-.87,2.79-1.38,2.03-1.16,4.02-2.37,6.04-3.55.86-.5,1.73-1,2.62-1.46,1.37-.72,2.77-1.4,4.13-2.13.2-.11.31-.4.46-.61-.07-.08-.14-.16-.2-.24-1.23.95-2.82.93-4.14,1.73-2.12,1.28-4.32,2.42-6.5,3.58-.28.15-.68.05-1.2.07-.11.15-.29.61-.62.83-1.57,1.02-3.12,2.1-4.79,2.92-1.05.51-2.06,1.08-3.05,1.69-.39.24-.93.27-1.31.53-.75.51-1.39,1.18-2.15,1.68-1.15.75-2.33,1.43-3.54,2.07-.64.34-1.22,1.05-2.11.58-.04-.02-.12.04-.24.08.09.17.17.33.25.49-.57.39-1.14.79-1.87,1.29.1-.39.14-.59.19-.79-.35.09-.63.28-.71.53-.25.89-.65,1.06-1.49.49-.05.93-.65,1.33-1.46,1.45-.18.03-.44-.09-.58-.23-.12-.11-.19-.38-.14-.53.25-.73,1.88-1.57,2.44-1.61,3.8-2.28,7.59-4.56,11.45-6.88-.41.08-.78.15-1.15.22-.05-.08-.11-.16-.16-.23.28-.28.51-.67.85-.83,2.53-1.19,5.09-2.33,7.63-3.5.95-.43,1.94-.81,2.82-1.36,1.87-1.15,3.88-2.02,5.66-3.35,1.73-1.3,3.71-2.27,5.6-3.34.32-.18.76-.12,1.23-.19.32-.32.72-.84,1.24-1.2.48-.35,1.25-.4,1.59-.82.83-1.01,1.35-.25,1.96.17.15.1.25.27.41.45.65-.76-.88-2.09.66-2.44.17.42.34.82.51,1.23.13-.04.27-.07.4-.11-.05-.53-.1-1.07-.17-1.83,1.06-.27,2.19-.56,3.26-.83-.05-.17-.13-.39-.27-.85.4.29.56.41.54.39.31-.38.49-.73.77-.92.46-.32,1.02-.51,1.5-.81.63-.38,1.18-.94,1.85-1.19.48-.18,1.18-1.24,1.55,0,.34-.58.68-1.18,1.06-1.83-.2-.1-.4-.2-.42-.21-.35.3-.58.62-.88.74-1.45.57-2.9,1.11-4.23,1.96-.69.45-1.52.67-2.28,1.02-.27.12-.5.33-.75.48-.53.31-1.07.61-1.6.91-.12-.15-.23-.29-.35-.43.26-.29.46-.68.78-.86,1.12-.6,2.29-1.11,3.42-1.7.19-.1.27-.38.41-.58-.05-.09-.09-.18-.13-.26-.43.07-.93.02-1.28.22-1.51.86-2.97,1.81-4.47,2.69-.53.3-1.14.45-1.68.74-1,.54-1.97,1.14-2.98,1.68-.22.12-.52.09-.79.13-.04-.08-.08-.17-.12-.25.39-.39.73-.88,1.19-1.16,1.63-.99,3.33-1.86,4.95-2.86,1.92-1.17,3.76-2.47,5.68-3.63.68-.41,1.51-.57,2.35-.88.09-.18.25-.52.48-1,.34.46.57.77,1.02,1.39.16-.54.41-.9.33-1.17-.21-.73-.07-1.23.63-1.58.67-.32,1.35-.63,1.97-1.03,1.79-1.14,3.54-2.33,5.32-3.49.08-.05.21-.1.28-.07.9.32.83-.45,1.02-1.01-1,.29-1.93.73-2.84,1.18-1.18.59-2.39,1.14-3.53,1.8-1.11.65-2.38.95-3.46,1.73-1.28.93-2.75,1.59-4.14,2.35-1.13.61-2.29,1.16-3.41,1.78-1.72.96-3.46,1.88-5.1,2.95-1.51.98-2.13,1.02-2.9-.2-.02-.03-.12,0-.26,0,0,.22-.1.47-.02.66.35.79-.02,1.22-.7,1.52-.51.22-1.06.38-1.54.67-2.37,1.45-4.7,2.94-7.07,4.39-1.05.64-2.16,1.2-3.21,1.84-.18.11-.2.48-.21.49-.63.26-1.15.43-1.63.69-.28.16-.44.53-.72.68-1.25.69-2.52,1.34-3.79,1.99-.5.25-1.03.45-1.74.76.18-.43.27-.65.48-1.14-1.2,1.13-2.19,2.06-3.18,2.99-.04-.11-.07-.22-.11-.33-.33,0-.72-.13-.98,0-.54.28-1.02.69-1.52,1.05l.02-.02c-.57.24-1.12.64-1.71.69-.87.07-1.04.52-.96,1.2.1.83-.46.98-1.05,1.15-.21.06-.47.06-.61.19-.74.66-1.45,1.35-2.18,2.03-.12.11-.3.26-.42.24-.94-.14-1.34.59-1.91,1.08-.25.23-.61.34-.94.48-.4.16-.85.22-1.22.42-2.58,1.48-5.15,2.97-7.7,4.49-1.32.79-2.57,1.69-3.89,2.47-1.6.93-3.26,1.75-4.86,2.67-1.42.81-2.79,1.7-4.19,2.55-1.26.76-2.52,1.5-3.78,2.26-.1-.15-.21-.29-.31-.44,1.52-.83,2.8-1.94,4.4-2.72,1.59-.78,3.03-1.87,4.54-2.83-.07-.13-.14-.25-.21-.38-1.39.65-2.97,1.08-4.11,2.02-1.17.97-2.48,1.57-3.75,2.3-1.21.69-2.47,1.27-3.66,1.98-.99.59-1.88,1.37-2.88,1.95-1.36.8-2.81,1.46-4.17,2.27-1.72,1.02-3.39,2.13-5.09,3.19-2.09,1.3-3.99,2.9-6.37,3.71-.09.03-.15.12-.23.18-.75.59-1.51,1.18-2.26,1.77-.69.54-1.37,1.08-2.05,1.62.07.1.14.21.22.31.59-.28,1.21-.51,1.77-.85.4-.25.68-.7,1.08-.95.91-.57,1.85-1.11,2.81-1.6,1.6-.83,2.82-2.34,4.73-2.58.09-.01.17-.1.25-.15,1.2-.83,2.39-1.7,3.62-2.49.27-.18.71-.11,1.06-.15-.38.38-.77.75-1.15,1.13.07.1.13.2.2.29,1.05-.57,2.1-1.14,3.15-1.71-.06-.14-.12-.27-.17-.41-.69.24-1.37.49-2.05.73l.02.07ZM160.28,19.77c-.25,0-.36-.04-.43,0-2.17.98-4.34,1.97-6.51,2.96-.26.12-.51.29-.79.37-.52.15-1.09.17-1.58.38-.84.36-1.63.82-2.45,1.24-.97.49-1.95.99-2.93,1.46-1.98.95-3.98,1.85-5.94,2.83-1.11.56-2.13,1.27-3.22,1.86-.81.44-1.67.81-2.51,1.19-.68.31-1.32.82-2.17.36-.21-.11-.58.08-.87.14,0,.09.02.19.04.28.24.09.49.17.93.32-1.82.9-3.45,1.72-5.09,2.51-.08.04-.29-.19-.28-.19-2.14,1.99-4.88,2.9-7.51,4.43.12-.83.21-1.44.31-2.07-.42.22-.81.42-1.24.64-.24-.4-.44-.73-.63-1.05-.08,0-.16.02-.25.03-.04.47.09,1.06-.15,1.37-.3.38-.9.53-1.37.79.22.29.54.46.71.37.62-.32,1.19-.74,1.76-1.11.1.47.17.84.26,1.24-1.34.85-2.66,1.71-4.02,2.53-.27.16-.66.12-1.17.21.02-.03-.01.22-.15.31-1.02.7-2.06,1.38-3.11,2.04-.16.1-.48-.08-.65,0-.31.16-.54.44-.82.65-.52.38-1.05.75-1.58,1.13,1.9-.56,3.62-1.35,5.38-2.06.35-.14.81-.03,1.12-.03.5-.39.98-.88,1.55-1.18.92-.49,1.92-.83,2.86-1.27,1.5-.7,2.99-1.43,4.48-2.14.21-.1.43-.19.64-.3,1.48-.79,2.95-1.6,4.43-2.39,2.73-1.45,5.46-2.92,8.21-4.33,2.29-1.17,4.64-2.22,6.92-3.4,1.12-.58,2.11-1.4,3.22-2,1.65-.88,3.37-1.64,5.03-2.5,1.42-.73,2.8-1.55,4.22-2.29.92-.48,1.92-.82,2.82-1.31.81-.44,1.55-1.01,2.3-1.54.09-.06.11-.22.23-.47h0Zm-14.81,56.16c.71.84,1.68.94,2.49.29.28-.23.65-.35.97-.53,1-.54,2-1.08,2.99-1.63.93-.5,2.09-.52,2.83-1.43.16-.19.54-.2.79-.32.33-.16.65-.33.95-.53.22-.15.39-.37.61-.52,1.24-.84,2.73-1.17,4-2,1.35-.89,2.84-1.57,4.31-2.27.28-.13.73.06,1.1.13.3.06.6.17.9.26.03-.11.07-.22.1-.34-.2-.14-.39-.29-.83-.6.63-.37,1.1-.69,1.6-.94.58-.28,1.24-.44,1.79-.77.73-.43,1.33-1.09,2.08-1.46,1.87-.92,3.8-1.72,5.7-2.58.24-.11.45-.29.68-.43.71-.43,1.42-.87,2.14-1.27.75-.41,1.68-.6,2.01-1.66-.74.21-1.4.54-2.06.56-1.48.04-2.54,1.2-4.06,1.31-1.06.07-2.08.89-3.11,1.4-1.77.88-3.55,1.72-5.29,2.66-4.82,2.62-9.61,5.28-14.4,7.94-2.79,1.55-5.55,3.15-8.32,4.72h.03Zm33.3-27.62c-.95.3-1.79.46-2.55.82-2.91,1.39-5.87,2.71-8.67,4.3-4.07,2.3-8.02,4.81-12.02,7.23-1.84,1.11-3.72,2.18-5.53,3.35-1.01.66-2.56.92-2.19,2.77.26-.2.4-.47.55-.73.13-.23.24-.57.44-.64,1.07-.38,2.19-.62,3.24-1.04.58-.23,1.06-.71,1.59-1.07.21-.15.55-.46.6-.42.44.37.54-.07.8-.23.38-.23.85-.29,1.28-.43.28-.09.64-.1.82-.28,1.74-1.86,4.11-2.6,6.31-3.63,1.03-.48,2.07-.93,3.07-1.46,1.22-.64,2.4-1.36,3.62-2.02,1.47-.79,2.96-1.53,4.43-2.32.76-.41,1.5-.88,2.23-1.34,1.28-.8,2.54-1.62,3.81-2.43-.04-.07-.08-.14-.12-.21-.6-.08-1.21-.16-1.72-.22h0Zm-105.19,56.23c-.52.12-.86.11-1.1.27-.67.44-1.25,1-1.94,1.4-.79.46-1.7.71-2.49,1.18-2.21,1.33-4.38,2.74-6.59,4.08-.95.58-1.97,1.02-2.93,1.59-1.38.82-2.72,1.7-4.08,2.55-1.27.79-2.58,1.54-3.82,2.39-1.07.73-1.07.77-1.46-.48-.24.18-.47.34-.77.56.33.24.56.4.81.59-.79.84-.71-.45-1.23-.4-.19.44-1.28-.08-1.2.98.49-.02.87-.04,1.38-.06-.26.37-.43.62-.66.94.22.06.36.16.45.12,1.37-.56,2.74-1.11,4.08-1.72.49-.22.87-.66,1.34-.95,1.59-.96,3.19-1.9,4.8-2.82.51-.29,1.1-.44,1.6-.74.65-.4,1.22-.93,1.88-1.31.97-.56,2.01-.99,2.97-1.56,1.32-.78,2.65-1.58,3.88-2.48,1.26-.93,2.52-1.8,4.05-2.22.19-.05.32-.33.49-.49.66-.66,1.24-1.37,2.31-1.5.45-.05.84-.68,1.25-1.05-.06-.07-.12-.15-.19-.22-.9.45-1.8.89-2.7,1.34-.04-.08-.08-.15-.11-.23-.03.16-.05.32-.04.25h.02Zm13.91-31.05c0-1.15,1.03-1.29,1.66-1.7,1.39-.9,2.89-1.65,4.37-2.42.43-.22.94-.3,1.42-.44.79-.46,1.54-1.09,2.36-1.62.96-.62,1.97-1.16,2.96-1.73.79-.46,1.55-1.09,2.4-1.3.87-.21,1.33-.67,1.78-1.36-1.97.05-22.78,11.94-23.5,13.53,1.11-.55,2.14-1.6,3.26-1.7,1.33-.12,1.9-1.7,3.3-1.26h-.01Zm-1.28,16.18c-.07-.11-.14-.21-.2-.31-.61.19-1.27.28-1.82.57-1.61.87-3.14,1.87-4.75,2.74-2.62,1.42-5.27,2.78-7.9,4.17-1.3.69-2.6,1.4-3.89,2.1-1.35.73-2.69,1.48-4.05,2.19-.68.35-1.42.58-2.07.96-.61.36-1.13.87-1.68,1.31,4.56-2,9.08-4.07,13.39-6.63,4.24-2.52,8.92-4.28,12.99-7.11h-.02Zm-50.69,37.79c.06.12.12.24.18.35,2.17-.47,3.49-2.6,5.63-3.16.2.3.35.53.62.94.15-.46.21-.79.36-1.06.12-.22.5-.57.53-.55.76.58,1.11-.21,1.78-.42-.3-.22-.48-.36-.66-.49.69-.48,1.35-.93,2.01-1.39-.05-.12-.11-.24-.16-.36-.64.18-1.27.35-1.9.53-.2-.92-.7-1.1-1.52-.53-1.7,1.18-3.42,2.34-5.14,3.5-.13.09-.33.07-.47.16-.66.4-1.31.81-1.96,1.22.08.12.16.24.24.36,1.13-.68,2.24-1.38,3.39-2.03,1.09-.61,2.02-1.62,3.6-1.46-2.27,1.52-4.41,2.96-6.54,4.39h.01Zm18.19-36.5c.06.13.12.26.17.39.13,0,.27.02.38-.02.96-.39,1.98-.69,2.87-1.21,1.27-.73,2.45-1.63,3.68-2.44.27-.18.59-.28.88-.41.25-.11.52-.19.74-.34.66-.45,1.24-1.06,1.95-1.36,1.6-.66,2.94-1.64,4.25-2.74.88-.73,1.94-1.41,3.03-1.69,1.02-.27,1.36-.96,1.76-1.78-6.58,3.87-13.15,7.73-19.73,11.6h.02Zm77.22-5.55c.73.05,1.44-.38,1.91-1.24.1-.19.3-.37.5-.46.99-.49,1.99-.95,2.99-1.4.34-.15.72-.21,1.06-.36,1.65-.74,3.3-1.45,4.92-2.26.58-.29,1.07-.78,1.52-1.26.06-.06-.3-.68-.58-.86-.17-.11-.6.04-.85.18-1.5.83-3,1.67-4.45,2.58-.9.56-1.68,1.33-2.59,1.87-1.3.77-2.71,1.35-3.99,2.15-.75.47-1.82.82-1.76,2.41.52-.53.85-.86,1.32-1.33v-.02Zm19.38-34.03c-.06-.14-.11-.28-.16-.41-.74.18-1.51.28-2.21.57-.57.24-1.04.73-1.58,1.07-1.64,1.04-3.34,1.99-4.92,3.1-.83.58-1.46,1.45-2.54,1.66-.19.04-.38.21-.5.38-.04.05.13.38.21.38.21,0,.44-.06.64-.16.56-.27,1.1-.57,1.65-.84.6-.29,1.23-.53,1.81-.85,2.09-1.17,4.09-2.57,6.29-3.45.93-.37.92-.93,1.31-1.44h0Zm9.76,5.46c-.06-.11-.13-.22-.19-.33-.26.07-.55.1-.77.23-1.65.93-3.28,1.88-4.92,2.81-1.62.92-3.24,1.83-4.87,2.74-1.75.98-3.5,1.94-5.24,2.93-.22.12-.36.38-.53.57.1.09.19.19.29.28,5.72-2.55,10.9-6.04,16.25-9.23h-.02Zm-61.04-4.5c-1.64.07-11.6,5.66-12.71,7.13.23.25.47.5.57.6.35-.42.62-.75.9-1.07.94-1.09,2.6-.8,3.59-1.91.31-.35,1.03-.34,1.64-.52,0,.03-.06-.17,0-.21.38-.29.81-.54,1.19-.84.7-.54,3.3-1.54,4.13-1.61.15,0,.37-.19.42-.33.13-.4.18-.83.27-1.24Zm-13.86,32.59c-.1-.15-.19-.3-.29-.45-4.92,2.84-9.85,5.68-14.77,8.53.05.09.1.18.15.27,2.1,0,3.46-1.58,5.13-2.47,1.7-.91,3.38-1.84,5.03-2.83,1.61-.97,3.17-2.02,4.75-3.04h0Zm-28.82,2.29c.09.14.17.28.26.42,1.28-.72,2.54-1.47,3.83-2.15.57-.31,1.21-.49,2.11-.84.34-.7,2.43-1.9,3.15-1.75,1.51-1.64,3.77-2.16,5-3.9-4.85,2.65-9.75,5.17-14.35,8.21h0Zm95.27-30.11c-.9.43-1.58.78-2.28,1.08-1.01.44-2.04.82-3.04,1.28-.32.15-.62.43-.82.73-.41.62-.83.65-1.52-.17-.23.53-.41.95-.61,1.38-.05.11-.13.25-.23.3-.85.46-1.67,1.05-2.58,1.32-.92.27-1.6.81-2.46,1.37,2.62-.01,12.54-5.91,13.54-7.29h0Zm-15.62-18.67c0,.09-.03.17-.04.26.27,0,.53,0,.79-.04.29-.06.57-.17.84-.27.8-.29,1.77-.13,2.39-.94.15-.2.43-.34.68-.42,1.8-.65,3.63-1.23,5.18-2.44.24-.18.59-.22.88-.34.21-.08.41-.19.61-.29-.2-.1-.44-.33-.61-.29-1.26.31-2.59.51-3.74,1.07-2.38,1.13-4.66,2.46-6.98,3.7h0ZM32.48,108.34c-2.01,1.02-3.88,1.88-5.65,2.89-1.77,1.01-3.44,2.18-5.16,3.27.05.1.1.19.16.29,1.95-.84,3.9-1.68,5.85-2.52.03-.01.05-.05.08-.06.93-.58,1.8-1.45,2.81-1.67,1.32-.29,1.38-1.27,1.92-2.2h0ZM114.99,35.24c.09.11.18.21.28.32-.53.17-1.08.32-1.6.52-.45.18-.88.42-1.37.67.01-.34.02-.59.03-.73-.42.69-.85,1.4-1.36,2.23,1.1-.58,2.07-1.14,3.08-1.61,1.7-.79,3.46-1.48,5.14-2.31.76-.37,1.4-.97,2.1-1.46-.08-.13-.15-.25-.23-.38-1.27.61-2.53,1.21-3.8,1.82-.1-.07-.21-.14-.32-.21.17-.41.34-.82.62-1.47-.51.3-1,.42-1.08.67-.15.45-.43.52-.77.73-.35.21-.48.79-.71,1.2h0Zm32.7,2.5c.06.12.11.24.17.37.55-.27,1.13-.5,1.64-.83.9-.59,2.1-.29,2.93-1.09.43-.41.94-.77,1.47-1.04.93-.46,1.94-.76,2.85-1.27.76-.43,1.42-1.05,2.16-1.62.19.03.51.09.83.15,0-.1.02-.19.02-.29-.72-.31-1.45-.34-2.16.07-.86.5-1.71,1.04-2.58,1.53-1.04.59-2.11,1.14-3.16,1.72-1.39.76-2.78,1.53-4.16,2.3h0Zm4.85-22.18c-2.11-.03-7.65,2.95-7.79,3.98,1.38-.56,2.81-1.14,4.43-1.79-.11.54-.16.77-.21,1.05,2.79-.84,2.8-.85,2.8-1.68-.7.32-1.4.63-2.1.95-.07-.13-.13-.26-.2-.39.98-.67,1.97-1.35,3.08-2.11h0ZM44.51,104.74c.06.09.11.19.17.28,1.44-.02,9.7-5.04,10.18-6.29-1.47.22-2.37,1.29-3.49,1.94-1.19.69-2.35,1.42-3.53,2.12-1.11.66-2.22,1.3-3.33,1.95Zm-16.6-9.58c-2.8,1.67-5.66,3.22-8.09,5.42,1.63-.76,3.17-1.65,4.72-2.52.46-.26.94-.52,1.42-.74.95-.43,1.82-.92,1.95-2.16Zm109.08-6.14c-.04-.15-.07-.3-.11-.45-.43.1-.89.15-1.3.32-.53.22-1.01.55-1.53.8-.65.3-1.8.47-1.89.88-.23,1.01-1.02,1.02-1.59,1.21-.92.31-.49.67-.29,1.23,1.42-1.15,3.45-1.23,4.29-3.04.95.05,1.88,0,2.41-.96h0Zm-7.85-60.56c-.86.35-1.73.67-2.57,1.07-1.04.5-2.05,1.06-3.08,1.6-.66.35-1.31.7-1.97,1.05,1.27.42,6.98-2.4,7.61-3.72h.01Zm3.49,28.33c-.65-.05-7.54,3.1-8.09,3.8.31.26.62.51.71.58,2.55-1.51,5.05-3,7.37-4.38h0Zm-89.26,86.6c-.05-.08-.1-.16-.15-.24-.9.56-1.81,1.1-2.7,1.68-.94.61-1.83,1.36-2.76,1.21-1.06.92-1.97,1.7-2.87,2.49.1.13.2.26.3.38,2.73-1.84,5.46-3.68,8.19-5.52h0Zm35.56-22.63c-.9.61-1.57,1.05-2.23,1.52-.17.12-.44.36-.41.49.13.65.34,1.29.57,2.09.2-.35.35-.54.41-.74.3-1.02.26-2.3,1.84-2.28.08,0,.15-.13.23-.18.9-.61,1.8-1.21,2.68-1.84.21-.15.35-.38.52-.57-1.46.36-2.51,1.49-3.63,1.52h.02Zm22.37-10.7c.29-.36.46-.79.77-.92,1.02-.46,1.98-.9,2.88-1.66,1.14-.96,2.65-1.46,3.99-2.18.38-.21.73-.47,1.1-.7-.22-.2-.37-.25-.46-.2-2.74,1.52-5.47,3.06-8.22,4.57-.65.36-.46.68-.06,1.1h0Zm23.12-58.89c.04.09.07.18.11.28,2.26-.58,4.24-1.8,6.3-2.9-.34-.17-.74-.38-.97-.26-1.83.93-3.63,1.92-5.43,2.89h-.01Zm12.89,16c.06.13.13.26.19.39,1.94-.62,3.92-1.15,5.35-2.75-.06-.12-.12-.23-.18-.35-1.79.9-3.58,1.81-5.37,2.71h0Zm11.18,14.97c.46.06.72.18.88.1,1.15-.54,2.3-1.07,3.39-1.71.24-.14.26-.66.38-1.01-.32.01-.72-.09-.95.06-.44.29-.74.81-1.19,1.09-.59.37-1.26.59-1.89.9-.16.08-.27.24-.62.57h0Zm-48.72-24.83c-.04-.07-.08-.15-.12-.23-1.7,1.05-3.4,2.1-5.1,3.17-.04.02-.03.12-.05.2.21.15.42.31.52.38.58-.39,1.08-.78,1.62-1.08.42-.24.97-.29,1.33-.58.65-.55,1.2-1.22,1.8-1.85h0Zm-44.8,41.21c1.53.15,4.81-1.88,5.44-3.4-1.9,1.19-3.59,2.24-5.44,3.4Zm30.1-38.12c-.06-.09-.12-.18-.18-.27-1.36.75-2.72,1.51-4.05,2.24.36.33.54.55.77.68.2.11.48.19.68.13.21-.06.55-.39.52-.46-.43-.98.58-1.03.95-1.45.34-.38.87-.59,1.31-.88h0Zm-39.08,14.28c.07,0,.13,0,.19.01.09-.88.19-1.76.28-2.67-1.05.57-1.98,1.05-2.89,1.59-.14.08-.11.43-.16.66.26,0,.59.08.77-.04.39-.26.7-.63,1.06-.98.28.55.51.99.74,1.43h0Zm62.13-6.73c-.06-.12-.13-.24-.19-.36-1.92,1.08-3.84,2.17-5.91,3.34.57.1.94.16,1.22.2,1-1.95,3.61-1.61,4.87-3.19h.01Zm-43.56,39.36c1.52-.88,3.05-1.75,4.73-2.71-.62-.25-.99-.39-1.34-.53.05.09.11.18.16.27-.69.58-1.37,1.61-2.05,1.61-1.05,0-1.25.58-1.5,1.36Zm-2.56-13.62c-.47.53-.98,1.09-1.48,1.65,2.02-.36,3.2-1.23,3.18-2.19-.34.15-.63.29-.93.4-.23.08-.49.09-.77.14Zm71.87-19.12c.03.08.06.16.1.24.24-.03.52,0,.72-.1.76-.41,1.49-.86,2.21-1.32.1-.06.17-.37.12-.42-.13-.12-.33-.22-.51-.21-1.3.04-1.78,1.19-2.64,1.82h0Zm24.06-31.34c-1.51.88-2.87,1.68-4.46,2.61,1.14.22,4.28-1.66,4.46-2.61Zm-54.29,6.9c-.08-.12-.17-.25-.25-.37-1.21.91-2.87,1.05-3.9,2.28.06.11.13.22.19.33,1.32-.75,2.64-1.49,3.95-2.24h.01Zm56.41,2.79c-.08-.16-.15-.31-.22-.47-1.33.71-2.65,1.42-3.97,2.12.05.11.11.22.17.32,1.34-.66,2.69-1.32,4.03-1.97h0Zm-120.64,50c-1.1-.22-3.39,1.72-3.31,2.51,1.05-.8,2.07-1.57,3.31-2.51Zm10.33-31.99c-.07-.13-.13-.26-.2-.4-.74.28-1.5.53-2.23.86-.19.08-.33.4-.37.63-.02.12.24.42.33.41.19-.03.35-.23.53-.35.31-.21.62-.43.94-.62.33-.19.67-.36,1-.54h0Zm91.77,14.86c-.92-.15-2.12.79-2.25,1.72,1.08-.12,1.76-.71,2.25-1.72ZM176.22,13.68c1.01-.46,2.03-.91,3.04-1.37-1.11-.41-2.76.35-3.04,1.37Zm-60.29,75.62c1.44.15,2.05-.58,2.06-2.42-.46.21-.84.38-1.39.63.45.26.69.4.99.58-.29.26-.5.47-.74.65-.25.18-.52.32-.91.55h0Zm39.88-10.48c-1.22-.74-2.3-.11-2.4,1.15.79-.38,1.48-.71,2.4-1.15Zm-83.15-.36c.5-.27,1-.45,1.39-.77.24-.19.31-.58.46-.88-.28.07-.56.14-.83.22-.19.06-.41.09-.56.2-.42.29-.88.6-.45,1.23h-.01Zm50.95-26.81c-.9.35-1.57.6-2.53.97.47.38.81.65,1.13.9.5-.67.87-1.15,1.4-1.87Zm-40.35,52.94c-.07-.07-.14-.14-.21-.2-.76.49-1.51.99-2.37,1.54.53.14.92.24,1.25.33.46-.57.89-1.12,1.33-1.67Zm49.92-77.64c-.09-.17-.19-.34-.28-.5-.73,1.03-2.3.58-2.76,2.06,1.01-.52,2.03-1.04,3.04-1.56Zm-37.93,48.55c-.08-.14-.17-.28-.25-.42-1.14.71-2.28,1.41-3.42,2.12.05.09.1.17.16.26,1.17-.65,2.34-1.3,3.51-1.96Zm-49.67,54.59c-1.14.48-2.57.62-3.4,2.05.77-.36,1.42-.6,2-.95.51-.3.94-.73,1.41-1.1h0Zm96.4-90.81c.15,0,.29,0,.44-.02.09-.68.19-1.36.32-2.3-.46.25-1.09.42-1.1.62-.02.56.21,1.14.34,1.7Zm-39.25,4.77c-.06-.12-.12-.23-.19-.35-.53.26-1.06.52-1.79.88.67.02,1.1.03,1.75.04-.42.51-.68.84-.95,1.16,1.34-.03.76-1.17,1.17-1.74h.01Zm-57.64,34.75c-.06-.12-.13-.23-.19-.35-.77.45-1.53.9-2.38,1.4.72.4,2.21-.31,2.58-1.05h-.01Zm31.03.03c1.88,0,2.24-.19,2.48-1.28-.89.46-1.68.87-2.48,1.28Zm66.58-27.94c1.14,0,1.66-.36,1.98-1.28-1.09.45-1.75.87-1.98,1.28Zm-85.6,45.37c-.03-.11-.07-.21-.1-.32-.8-.31-1.65.14-1.96,1.15.75-.3,1.41-.56,2.06-.83Zm37.52-37.62c-1.81,0-2.38.42-2.08,1.17.69-.39,1.39-.78,2.08-1.17Zm47.09,11c1.25.91,1.7-.31,2.53-.58-.03-.08-.06-.15-.09-.23-.81.27-1.63.54-2.44.81Zm21.96,4.77c-.06-.13-.12-.25-.17-.38-.91.45-1.82.9-2.73,1.36.07.13.13.26.2.39.9-.46,1.81-.91,2.71-1.37h-.01Zm-65.54-.96c-.06-.09-.11-.17-.17-.26-.68.45-1.35.89-2.03,1.33,1.09.22,1.69-.35,2.2-1.07Zm-28.89,50.96c-1.81.67-1.87.77-1.47,1.78.5-.61.98-1.2,1.47-1.78Zm-3.95-31.51c.21-.07.49-.11.49-.16,0-.61,0-1.23-.07-1.83-.02-.21-.24-.41-.36-.61-.06.03-.12.06-.17.09.04.79.07,1.58.12,2.52h-.01Zm100.5-17.82c.08.14.16.29.24.43.84-.47,1.68-.93,2.52-1.4-.06-.1-.12-.2-.17-.3-.86.42-1.73.85-2.59,1.27h0Zm-1.55-65.33c-.35.31-.7.63-1.19,1.07,1.45.37,1.57.28,1.19-1.07Zm-4.71,68.5c.09.16.18.33.27.49.74-.43,1.48-.87,2.21-1.3-.05-.09-.1-.19-.16-.28-.77.36-1.55.72-2.33,1.09h0Zm-108.1,57.1c.45-.57.79-1,1.3-1.63-.87.44-1.53.78-2.18,1.11.03.09.07.17.1.26.31.1.61.2.79.26h0Zm35.3-46.05c.77-.38,1.42-.66,2.02-1.02.16-.09.16-.44.24-.67-.21-.02-.51-.14-.61-.05-.54.51-1.03,1.07-1.65,1.74Zm-69.97,9.79c1.48.62,1.58-.73,2.29-1.02-.05-.09-.11-.19-.17-.28-.65.4-1.3.8-2.12,1.3Zm112.29-21.2c.62-.48,1.17-.9,1.72-1.32-.04-.06-.09-.11-.13-.17-.46.02-.91.04-1.26.06-.1.44-.19.82-.33,1.44h0Zm-75.62,20.31c-.05-.07-.1-.14-.15-.21-.65.45-1.87.06-1.97,1.61.81-.53,1.47-.96,2.13-1.4h0Zm91.78-34.6c-.09-.14-.19-.28-.28-.41-.67.45-1.33.9-2,1.35.09.13.17.26.26.39.68-.44,1.35-.88,2.02-1.32h0Zm-46.76,9.47c.71.71,1.23.97,1.55.78-1.33-.47-.63-1.03-.17-1.67-.43.28-.86.55-1.38.89Zm55.12-39.96c-.02-.09-.05-.19-.07-.28-.65.15-1.3.3-2.17.51.47.27.74.43.97.57.47-.29.87-.54,1.27-.79h0ZM57.92,115.9c1.13-.2,2.03-.23,2.17-1.6-.76.56-1.35,1-2.17,1.6Zm69.15-37.58c-.48.34-.86.67-1.28.9-.37.21-1.05.06-.89.84,1.54-.67,2.26-1.26,2.17-1.75h0Zm10.32-56.1c-.81.51-1.38.86-1.93,1.2.05.07.1.14.15.21.46-.05.92-.11,1.37-.16.09-.28.2-.61.42-1.25h0Zm.9,39.32c-.53.29-1.5-.02-1.6,1.25.66-.54,1.64-.16,1.6-1.25Zm-84.35,26.17c-.27.11-.64.18-.9.4-.15.12-.19.49-.13.71.03.12.46.28.56.21.17-.12.23-.4.31-.62.07-.21.11-.44.17-.7h0Zm84.9-15.11c-.07-.43-.14-.81-.2-1.19-.08-.01-.17-.03-.25-.04-.1.3-.21.59-.28.8-.3.13-.55.25-.81.37.03.08.06.16.09.23.46-.05.93-.1,1.46-.16h-.01Zm-103.41,32.66c-1.47.07-1.77.38-1.37,1.36.44-.43.83-.82,1.37-1.36Zm108.14-45.63c.1-.04.2-.08.31-.12.14-.72-.16-1.18-.91-1.39.23.57.41,1.04.6,1.51Zm-20.75-34.87c1.29.33,1.58.18,1.81-.93-.61.32-1.11.58-1.81.93Zm46.72,48.53c1.07.05,1.59-.22,1.57-.81-.57.29-1.07.56-1.57.81Zm-59.28-16.86c-.31.41-.53.65-.65.93-.03.07.29.29.44.44.2-.23.44-.44.57-.71.05-.1-.17-.33-.37-.66h.01ZM42.38,125.77c1.1.14,1.74-.41,1.56-1.27-.5.41-.95.77-1.56,1.27Zm39.87-59.61c-.09-.64-.17-1.28-.27-1.97-.63.54-.62.76.27,1.97Zm14.15,46.18c-.06-.08-.12-.17-.18-.25-.7.43-1.4.86-2.11,1.29.06.09.12.18.18.27.7-.44,1.41-.87,2.11-1.31Zm45.99-69.41c.05-.08.1-.16.15-.23-.22-.33-.44-.66-.7-1.05-.14.05-.37.14-.86.33.59.4,1,.68,1.41.96h0Zm-4.22,10.44c-.07-.09-.15-.18-.22-.27-1.35.45-1.37.46-1.19,1.22.5-.34.95-.65,1.41-.96h0Zm-8.74,39.38c-.48.28-.97.56-1.66.95,1.14.34,1.5-.15,1.66-.95Zm-19.87-43.17c-.66.26-1.18.46-1.74.68.3.35.48.57.6.72.37-.46.68-.85,1.13-1.4h.01Z"/><path class="cls-1" d="m97.88,36.65c-.51-.07-1.02-.14-1.6-.23-.22,1.28-1.43,1.72-2.49,2.29-.47.25-1.09.32-1.47.66-.27.24-.24.8-.39,1.39-.24-.16-.47-.32-.61-.42-.3.43-.62.88-.93,1.34-.04-.05-.09-.09-.13-.14.24-.88.49-1.75.72-2.6-.96.17-1.01.81-.69,1.5-1.36.74-2.65,1.45-3.95,2.17.04.09.08.17.12.26.43-.15.86-.29,1.29-.44.06.12.11.25.17.37-2.17,1.24-4.53,2.12-6.95,3.33-.2-.63-.39-1.23-.63-1.99-.65.3-1.34.62-1.97.91.51.4.95.73,1.48,1.15-.15.25-.31.52-.61,1.04-.46-.71-.82-1.25-1.24-1.88-.27.47-.47.84-.53.94.13.75.22,1.26.3,1.76-1.43.73-2.79,1.45-4.17,2.1-.21.1-.56-.1-.85-.16-.2.86-.53,1.03-1.27.74-2.05,1.57-4.02,3.03-6.66,3.39.03.06.12.24.26.53-1.26.65-2.53,1.3-4.02,2.07.45-1.86,2.14-1.9,3.06-2.79-.05-.07-.11-.15-.16-.22-1.08.54-2.15,1.08-3.23,1.62.08.38.13.66.22,1.08-1.72,1.09-3.46,2.18-5.19,3.28-.1-.09-.2-.18-.3-.27.14-.41.28-.82.47-1.42-1.04.44-2.01.79-2.91,1.27-.48.26-.27.76.58,1.22-1.07.56-2.07,1.09-3.07,1.61-.08-.09-.16-.18-.24-.27.43-.43.87-.86,1.47-1.46-2.07.5-2.41.85-2.09,2.16-1.59.85-3.24,1.71-4.86,2.62-.94.52-1.81,1.16-2.76,1.67-.94.5-1.95.87-2.9,1.37-.91.48-1.77,1.04-2.66,1.56-.37.22-.75.41-1.12.62-2.69,1.48-5.4,2.92-8.06,4.45-1.95,1.12-3.84,2.36-5.73,3.57-1.04.66-1.98,1.49-3.07,2.05-.91.46-1.99.58-2.96.95-.62.23-1.15.69-1.77.93-.7.28-1.45.51-2.19.62-.26.04-.57-.35-.86-.55.23-.24.44-.5.7-.71.29-.22.62-.39.94-.58.49-.29.97-.81,1.47-.83,1.46-.06,2.22-1.13,3.25-1.86.77-.55,1.73-.88,2.64-1.21.22-.08.58.26.87.4.12-1.2.94-1.83,2.07-2.26.76-.28,1.48-.71,2.18-1.13,1.4-.83,2.68-2.03,4.18-2.47,2.13-.62,3.41-2.6,5.91-3.17-.34.55-.53.86-.75,1.21.43.48.56.48.98-.17.19-.31.41-.61.56-.94.57-1.23,1.66-1.66,2.88-1.96.36-.09.64-.45.97-.67.87-.58,1.75-1.16,2.55-1.92-.35.09-.69.25-1.04.24-.26-.01-.58-.2-.73-.41-.07-.11.12-.54.3-.66.54-.34,1.12-.61,1.7-.88,1.78-.84,3.58-1.64,5.35-2.5.71-.35,1.34-1.14,2.04-1.18,1.28-.07,1.64-1.41,2.99-1.44-.27.42-.44,1-.83,1.23-2.25,1.33-4.56,2.56-6.84,3.85-.81.45-1.58.96-2.37,1.45.07.12.14.24.21.37l12.54-6.96c-.04-.12-.09-.24-.13-.36-.72.26-1.44.52-2.16.79-.07-.12-.15-.25-.23-.37.54-.35,1.06-.73,1.62-1.04.66-.37,1.33-.74,2.03-1.03,1.18-.49,2.39-.91,3.59-1.37.15-.06.31-.13.4-.24,1-1.22,2.34-1.84,3.82-2.22.18-.05.35-.16.52-.23.47-.18.94-.36,1.14-.44.83-.44,1.46-.76,2.07-1.09.65-.36,1.45-.61,1.91-1.15.69-.81,1.2-.37,2.01.07-.61-1.05.07-1.26.72-1.55.75-.33,1.45-.79,2.21-1.1.75-.31,1.55-.47,2.31-.76.29-.11.48-.43.76-.59.54-.3,1.1-.56,1.66-.83.08-.04.26.03.29,0,.65-1.19,1.96-1.14,2.96-1.66.59-.31.93-1.1,1.38-1.68.08-.1.1-.29.2-.33.71-.29,1.43-.79,2.14-.76.83.03,1.28-.4,1.88-.76.8-.48,1.66-.86,2.52-1.23.18-.08.45.06.69.1.16-.15.4-.55.67-.57.94-.09,1.46-.84,2.19-1.23,1.84-.98,3.49-2.38,5.6-2.8.05.09.09.19.14.28-.57.28-1.14.57-1.98.99.49.08.67.16.82.12.72-.22,1.44-.44,2.13-.73.2-.08.31-.39.52-.67.32.94.41,1.66-.68,2.05-1.13.4-2.23.88-3.33,1.35-.06.03,0,.33.02.51h.02v-.06Zm-29.46,15.06c-.04-.11-.09-.21-.13-.32-.66.27-1.32.54-1.99.82-.09-.19-.26-.55-.43-.9-.11,0-.22,0-.33,0-.11.38-.41,1-.28,1.11.45.37,1.04.57,1.58.84-.02-.11-.03-.22-.05-.33.54-.41,1.09-.82,1.63-1.22h0Zm5.68-4.06c-.04.08-.07.16-.11.23.17.28.35.56.53.86.4-.34.66-.74.99-.81.32-.07.72.19,1.1.31-.05-.46-.07-.87-.15-1.27-.03-.13-.21-.34-.29-.33-.16.03-.36.15-.43.29-.34.66-.8,1.05-1.64.71h0Zm-15.87,7.59c.09.15.17.31.26.46.76-.45,1.51-.89,2.27-1.34-.07-.12-.14-.24-.21-.36-.77.41-1.55.83-2.33,1.24h0Zm.19,1.22c.1.16.2.33.3.49.59-.38,1.19-.76,1.78-1.14-.06-.09-.11-.18-.17-.28-.63.31-1.27.62-1.9.93h0Z"/><path class="cls-1" d="m87.91,46.8c-.92.51-1.81.88-2.53,1.46-.3.24-.21.93-.36,1.4-.09.27-.3.5-.46.74-.19-.16-.39-.33-.57-.47-.41,1.53-2.27,1.16-3.08,2.29-.05-.07-.11-.14-.16-.21.5-.4,1-.8,1.49-1.21.5-.43.99-.88,1.48-1.32-.06-.11-.11-.21-.17-.31-.56.25-1.12.5-1.67.75-.07-.07-.15-.14-.22-.21.38-.37.71-.83,1.16-1.09,1.75-.99,3.54-1.91,5.31-2.88,1.74-.96,3.52-1.87,5.2-2.95.77-.49,1.41-1.06,2.41-1.2.27-.04.86-.51,1.31-.77,1.22-.71,2.36-1.56,3.54-2.34.37-.25.75-.48,1.27-.8-.19.4-.3.65-.43.91,1.34.3,2.43-.31,2.44-1.4-.59.27-1.16.53-1.72.78-.07-.13-.13-.26-.2-.39,2.75-1.5,5.5-3.01,8.25-4.51.08.14.17.28.25.42-1.21.68-2.39,1.44-3.65,2.03-.94.44-1.12.65-.7,1.71.17-.09.34-.18.51-.27.18-.09.36-.18.65-.33.06.4.12.74.14.87-.56.27-1,.43-1.37.68-.67.43-1.28.98-1.97,1.36-.35.19-.83.14-1.13.28-1.32.84-2.65,1.68-4.21,2.68.12-.59.18-.86.24-1.15-1.13-.05-2.45.97-2.66,2-.03.15-.12.34-.24.4-1.67.96-3.35,1.9-5.13,2.68,1.29-1.3,3.13-1.79,4.49-2.97-.07-.11-.14-.22-.22-.33-.46.29-.93.57-1.38.87-1.13.75-2.53.89-3.67,1.74-.44.33-1.12.21-.95,1.13.39-.1.78-.21,1.16-.31.05.09.09.18.14.27-1.31.75-2.63,1.5-4.15,2.37.26-1.1,2.18-.93,1.58-2.4h-.02Z"/><path class="cls-1" d="m79.08,117.21c.48-.46.91-.99,1.46-1.36,1-.66,2.08-1.19,3.1-1.83.72-.44,1.36-1,2.08-1.44.29-.18.67-.21.8-.24,1.29-.85,2.39-1.57,3.49-2.3,1.15-.77,2.28-1.57,3.44-2.33.59-.39,1.21-.72,1.81-1.1.66-.42,1.37-.79,1.95-1.3.5-.44,1.09-.99.59-1.68.6-.3,1.14-.58,1.88-.95.42-1.39,1.93-1.64,3.33-2.16.18.29.38.63.59.96.08,0,.16.02.25.03.04-.4.08-.8.11-1.15.75-.21,1.63-.46,2.43-.68.02.34.04.75.06,1.4-.26-.1-.52-.26-.78-.27-.27-.01-.56.07-.8.2-.06.03.06.39.11.69-8.48,5.19-17.08,10.45-25.68,15.71-.07-.07-.15-.14-.22-.21h0Z"/><path class="cls-1" d="m188.93,38.8c-.32-1.09.43-1.01.89-1.12.38-.09.84.04.86-.57,0-.08.11-.19.19-.22.92-.34,1.85-.64,2.77-1.01.42-.17.79-.47,1.2-.66,1.09-.51,2.17-1.07,3.31-1.47,1.38-.48,2.69-1.02,3.88-1.92.68-.52,1.62-.71,2.46-1,.22-.07.5.02.65-.15.49-.23.99-.44,1.47-.69,1.61-.88,3.18-1.84,4.83-2.63,1.05-.51,2.2-.83,3.33-1.13.37-.1.84.14,1.53.28-1.43,1.18-2.56,2.07-4.18,2.34-1.2.2-2.33.84-3.49,1.32-2.74,1.12-5.5,2.22-8.21,3.41-1.78.78-3.47,1.75-5.25,2.56-1.33.6-2.73,1.06-4.09,1.61-.39.16-.73.45-1.11.64-.33.16-.68.27-1.05.41h0Z"/><path class="cls-1" d="m203.34,21.15c-.38.12-.61.2-.83.27-.03-.08-.06-.16-.1-.23.36-.15.73-.28,1.08-.44,1.05-.46,2.09-.96,3.15-1.38.41-.17.89-.18,1.34-.25.16-.02.42.07.47,0,.64-.98,1.73-.84,2.65-1.15.82-.28,1.54-.84,2.29-1.3.8-.49,1.76-.46,2.18.11-.75,1.13-1.8,1.68-3.11,2.1-2.26.73-4.44,1.75-6.62,2.74-2.97,1.35-5.91,2.8-8.87,4.19-.22.11-.48.14-.75.12.76-.9,1.45-1.74,2.87-1.69.81.03,2.03-.08,2.04-1.5,0-.11.36-.33.53-.32.87.09,1.31-.38,1.67-1.28h.01Z"/><path class="cls-1" d="m110.61,115.87c.62.96.31,1.73-.74,1.85-.76.09-1.52,0-1.92.88-.06.15-.34.22-.53.28-1.71.53-3.03,1.67-4.36,2.79-.9.76-1.75,1.59-2.83,2.57.57.16,1.01.4,1.45.38,1.72-.07,3.43-.19,5.14-.36.49-.05.96-.33,1.45-.5.05.12.09.23.14.35-.46.19-.91.4-1.38.56-2.19.73-4.4,1.35-6.74,1.05-.42-.05-.85-.21-1.21-.43-.68-.4-1.33-.75-2.06.04-.05-.12-.1-.24-.15-.36.92-.62,1.84-1.23,2.77-1.84.19-.13.47-.18.6-.34,1.52-1.93,3.75-2.82,5.76-4.05,1.52-.93,3.03-1.88,4.61-2.87Z"/><path class="cls-1" d="m70.88,54.55c1.42-.72,2.49-1.44,3.68-1.83,1.24-.4,2.29-1.04,3.36-1.74.65-.43,1.46-.65,2.22-.9.19-.06.47.14.69.22-1.21.92-2.36,1.8-3.51,2.68.02.07.04.13.07.2.46-.05.92-.1,1.37-.15.03.06.06.13.09.19-1.36.83-2.73,1.65-4.09,2.48-.06-.05-.11-.11-.17-.16.43-.45.86-.89,1.46-1.52-1.22.12-2.25.22-3.28.32.01.08.02.17.03.25.25.07.51.13.76.19-.17.21-.3.48-.52.62-.71.46-1.48.83-2.15,1.34-.22.16-.2.65-.28.98.09.04.18.09.27.14-1.04.63-2.06,1.28-3.12,1.86-.4.22-1.03.82-1.19-.28,0-.04-.23-.04-.54-.09,2.08-1.41,4.03-2.72,5.96-4.03-.27-.2-.59-.43-1.08-.79l-.03.02Z"/><path class="cls-1" d="m198.54,12.3c1.11.21,2.05-1.4,3.4-.48-.61,1.34-1.71,1.92-3.01,2.32-1.5.47-3.01.98-4.45,1.61-2.9,1.28-5.77,2.62-8.62,4-1.44.69-2.81,1.52-4.22,2.26-.72.37-1.47.69-2.21,1-.15.06-.35-.03-.6-.25.95-.57,1.88-1.16,2.85-1.7.91-.51,1.83-.97,2.76-1.44.55-.28,1.02-.8,1.77-.37.18.1.63-.15.9-.32,1.13-.71,2.16-1.64,3.37-2.14,1.29-.53,2.31-1.46,3.55-2.02s2.54-1.01,3.79-1.56c.27-.12.42-.51.72-.9h0Z"/><path class="cls-1" d="m185.9,53.02c.72-1.61,2.39-2.03,3.75-2.62,3.18-1.39,6.12-3.24,9.23-4.75,1.06-.52,2.14-1.03,3.24-1.44.45-.17,1-.07,1.65-.1-.83,1.67-2.22,2.18-3.62,2.65-3.37,1.13-6.51,2.76-9.64,4.41-1.25.66-2.56,1.19-3.86,1.75-.23.1-.51.06-.77.08,0,0,.02.02.02.02Z"/><path class="cls-1" d="m149.62,10.11c.08-.4.14-.72.22-1.14-.31.04-.55.07-.79.1-.04-.09-.09-.18-.13-.26,1.43-.8,2.86-1.61,4.29-2.41.07.11.14.21.22.32-.38.34-.77.68-1.33,1.18.36.02.58.09.77.04.51-.14.99-.45,1.5-.49.98-.07,1.1-.47.56-1.31,2.98-2.03,6.26-3.18,9.75-3.79-1.05,1.47-2.49,2.22-4.19,2.52-.22.04-.49.04-.64.17-1.5,1.31-3.43,1.78-5.12,2.71-1.61.89-3.34,1.56-5.11,2.36Z"/><path class="cls-1" d="m52.22,63.69c.17.14.38.31.57.46-.05.11-.06.2-.11.22-2.21,1.12-4.45,2.19-6.64,3.35-1.84.97-3.62,2.06-5.45,3.06-1.44.79-3,1.38-4.32,2.33-.76.55-1.71.73-2.37,1.59-.68.89-2.02.65-3.11.63-.07-.1-.15-.2-.22-.31.37-.35.68-.81,1.11-1.03,1.98-.99,3.93-2.1,6.02-2.78.87-.28,1.5-1.27,2.63-.93.24.07.68-.35.96-.62.73-.72,1.44-1.42,2.6-1.2.08.01.2-.14.29-.24.83-.95,1.86-1.49,3.12-1.73.54-.1.96-.69,1.49-.96.82-.41,1.7-.72,2.53-1.12.3-.14.53-.43.9-.74v.02Z"/><path class="cls-1" d="m170.27,39.36c-.47-.72-.17-1.65.78-2.06,1.48-.64,2.94-1.37,4.49-1.74,1.33-.32,2.77-.18,4.17-.25.08.09.16.18.23.26-.34.43-.59.99-1.03,1.25-.77.46-1.66.73-2.49,1.09-.98.42-1.95.85-3.04,1.16.23-.23.46-.46.69-.7,0-.07-.02-.13-.03-.2-.44.1-.89.17-1.33.31-.83.26-1.64.56-2.46.84l.03.02v.02Z"/><path class="cls-1" d="m68.5,41.15c.12.59.18.9.19.94-.62.39-1.09.71-1.59.99-1.29.7-2.59,1.38-3.89,2.07-.06.03-.14.02-.19.05-.92.67-1.84,1.35-2.88,2.11,1.71.82,3.28-.66,5.15-.17-1.13.94-2.23,1.33-3.41,1.39-.72.04-1.46-.3-2.17-.24-1.34.12-2.78-.16-3.98.76-.07.05-.19.03-.4-.14.52-.34,1.03-.7,1.57-1.02,1.95-1.17,3.89-2.35,5.87-3.46.49-.28,1.19-.19,1.68-.45.89-.48,1.72-1.08,2.56-1.66.48-.33.92-.72,1.49-1.18h0Z"/><path class="cls-1" d="m154.22,94.07c.7-.32,1.39-.64,2.08-.97,1.76-.85,3.51-1.75,5.29-2.57,1.22-.56,2.48-1.06,3.75-1.5.35-.12.81.03,1.22.06-.18.41-.24,1.02-.55,1.2-1.1.63-2.28,1.12-3.44,1.64-1.22.55-2.45,1.07-3.67,1.6-.06.02-.12.12-.16.11-1.48-.5-2.72.3-4.03.71-.11.04-.26-.04-.39-.06-.03-.07-.06-.15-.09-.22h0Z"/><path class="cls-1" d="m195.58,2.63c-4.25,1.69-8.5,3.38-12.84,5.11-.15-.71-.09-.88.63-1.08,1.09-.31,2.03-1.1,3.07-1.62.74-.37,1.54-.65,2.31-.96.21-.09.48-.1.63-.25,1.43-1.45,3.27-1.89,5.2-2.03.31-.02.64.2.96.31.02.18.03.35.05.53h-.01Z"/><path class="cls-1" d="m83.94,124.74c.2.21.43.47.59.64-1.58,1.25-3.14,2.48-4.7,3.71.07.1.13.2.2.29,2.77.31,5.18-.99,7.69-1.85.05.09.09.18.14.27-.75.48-1.43,1.12-2.25,1.41-1.73.61-3.53,1.05-5.3,1.55-.07.02-.14.05-.2.03-.66-.24-1.31-.49-1.97-.74.36-.57.66-1.18,1.08-1.69.49-.59,1.06-1.13,1.66-1.6.56-.43,1.21-.73,1.81-1.11.37-.24.71-.52,1.23-.92h.02Z"/><path class="cls-1" d="m135.92,110.98c1.32-.44,2.43-.81,3.55-1.19.06-.02.14-.08.19-.07,1.46.55,2.43-.68,3.66-.98.93-.23,1.9-.27,2.84-.47.76-.17,1.48-.48,2.24-.7.5-.14,1.03-.21,1.64-.33-.16,1.22-.88,1.71-1.86,2-.66.2-1.31.46-1.95.71-.86.34-1.69.77-2.54-.08-.19-.19-.67-.22-.96-.14-1.45.42-2.88.91-4.33,1.34-.61.18-1.25.28-1.88.35-.15.02-.33-.24-.59-.45h-.01Z"/><path class="cls-1" d="m161.3,85.5c-.2-.34-.34-.56-.47-.77-.09.21-.16.43-.26.64-.11.22-.24.42-.58.54.03-.26.05-.53.09-.93-.99.36-1.87.68-2.74.99-.05-.13-.1-.25-.15-.38,1.56-.74,3.12-1.46,4.67-2.22,1.43-.69,2.84-1.43,4.25-2.14.15-.08.3-.2.45-.21.49-.01,1.25-.41,1.32.39.03.39-.5.98-.92,1.23-.94.55-1.96.95-2.96,1.39-.19.08-.43.12-.64.1-.18-.02-.35-.15-.52-.23,0,.24-.02.48-.03.81-.46.24-.99.52-1.5.79h0Z"/><path class="cls-1" d="m104.8,95.93c.23,1.24-.14,1.98-1.21,2.04.33-.18.67-.37,1.01-.55-.1-.12-.2-.24-.3-.36-.34.2-.89.33-.99.61-.46,1.35-1.81,1.58-2.82,2.23.53-.41,1.07-.81,1.6-1.21-.05-.09-.1-.19-.16-.28-1.11.59-2.23,1.18-3.34,1.77-.04-.08-.09-.17-.13-.25.27-.2.54-.41.91-.7-.26-.43-.52-.87-.79-1.31.45-.27.88-.52,1.4-.83.22.34.46.7.77,1.15.04-1.44.57-2.15,1.97-2.65.1.38.19.76.33,1.32.6-.33,1.14-.62,1.76-.96v-.02Z"/><path class="cls-1" d="m50.27,51.89c-.33.27-.67.53-1.09.86,2.08.2,3.5-1.77,5.47-1.61.03.1.07.2.1.29-.49.2-.99.36-1.46.6-1.17.62-2.3,1.33-3.5,1.88-.5.23-1.15.11-1.72.23-.51.11-1,.42-1.51.44-.32,0-.66-.33-.99-.51.24-.25.43-.6.72-.74,1.24-.61,2.52-1.17,3.78-1.75.07.1.13.2.2.3h0Z"/><path class="cls-1" d="m88.4,106.82c-.95-.46-2.69.58-2.87,1.77-.65-1.26-1.07.11-1.63.08-.06-.09-.13-.18-.19-.27.77-.52,1.54-1.04,2.31-1.55.32-.21.66-.37.97-.59.3-.21.55-.61.87-.66,2.09-.39,3.52-1.99,5.33-2.88,1.23-.61,2.38-1.39,3.57-2.09.1.1.19.2.29.31-.18.18-.33.42-.55.55-1.31.78-2.64,1.54-4.03,2.35.24.2.38.3.55.45-.49.28-.93.54-1.37.79-.03-.04-.05-.07-.08-.11.21-.22.42-.44.66-.68-1.57.3-3.52,1.57-3.85,2.54h.02Z"/><path class="cls-1" d="m112.77,31.88l3.09-2.28c-.02-.07-.04-.14-.06-.22-.3.01-.6.03-.97.04.09-.19.12-.4.23-.46,1.17-.7,2.3-1.45,3.77-1.52.55-.03,1.08-.59,1.62-.9.17-.1.33-.19.49-.29.47.68.43,1.19-.34,1.55-.78.36-1.53.8-2.32,1.13-.24.1-.7.05-.85-.12-.62-.71-.85-.05-1.19.34.24.02.48.04.81.07-.89,1.78-2.92,1.71-4.1,2.92-.06-.08-.13-.17-.19-.25h.01Z"/><path class="cls-1" d="m40.17,84.72c-2.98,1.78-5.95,3.55-8.93,5.33-.07-.11-.15-.22-.22-.32.62-.43,1.21-.92,1.87-1.27.9-.49,2.08-.66,2.74-1.36.8-.86,1.82-1.13,2.73-1.69.55-.33,1.12-.63,1.68-.94.05.09.1.17.14.25h-.01Z"/><path class="cls-1" d="m139.92,93.19c2.95-1.35,5.89-2.7,8.84-4.06.06.13.12.26.18.38-2.94,1.38-5.87,2.76-8.8,4.14-.07-.16-.14-.31-.21-.47h0Z"/><path class="cls-1" d="m173.03,25.93c.99-.79,1.95-1.64,3-2.34.65-.43,1.46-.61,2.2-.9.07.16.15.32.22.48-1.5,1.47-3.62,1.85-5.44,2.74l.03.02h0Z"/><path class="cls-1" d="m154.17,94.75c-2.36.95-4.47,1.79-6.57,2.64-.06-.05-.11-.11-.16-.16.19-.21.33-.52.57-.61.77-.29,1.58-.48,2.35-.76.38-.14.8-.32,1.04-.62.71-.84,1.55-.83,2.77-.49Z"/><path class="cls-1" d="m30.01,90.59c-1.42,1.59-3.2,2.19-4.96,3.21.36-1.07,3.22-2.86,4.96-3.21Z"/><path class="cls-1" d="m155.98,86.45c-.55.26-1.08.57-1.65.78-.88.32-1.79.54-2.65.88-.51.2-.93.59-1.43.83-.2.09-.49-.02-.73-.04.17-.15.32-.36.53-.45,1.28-.56,2.56-1.11,3.85-1.63.64-.26,1.31-.43,1.97-.65.04.09.08.19.11.28h0Z"/><path class="cls-1" d="m180.17.58c-2.2.64-4.39,1.29-6.59,1.93-.04-.14-.08-.27-.12-.41,2.19-.66,4.38-1.33,6.57-1.99.05.16.1.31.14.47h0Z"/><path class="cls-1" d="m61.22,59.39c-.39,1.61-1.62,1.95-2.72,2.56-.19-.26-.37-.5-.58-.78,1.08-.59,2.11-1.14,3.3-1.79h0Z"/><path class="cls-1" d="m25,90.82c-1.85,1.28-3.7,2.55-5.74,3.96.14-.35.17-.72.36-.85,1.7-1.15,3.43-2.26,5.15-3.38.08.09.15.18.23.27Z"/><path class="cls-1" d="m66.48,57.49c.54-1.2,3.27-2.54,4.55-2.13-1.58.74-3.01,1.41-4.55,2.13Z"/><path class="cls-1" d="m115.24,113.8c-1.3.81-2.61,1.61-4.07,2.51.07-.29.05-.62.18-.7,1.2-.76,2.43-1.47,3.64-2.2.08.13.16.26.24.39h.01Z"/><path class="cls-1" d="m64.41,58.34c-.77.57-1.54,1.14-2.38,1.76.03-.15.12-.34.07-.39-.62-.64-.59-.88.23-1.11.66-.19,1.35-.3,2.02-.44.02.06.03.12.05.19h.01Z"/><path class="cls-1" d="m120.55,17.35c-1.27,1.45-3.15.82-4.3,1.89.6-.91,2.59-1.77,4.3-1.89Z"/><path class="cls-1" d="m53.26,63.2c.89-.36,1.71-.69,2.54-1.03.04.07.08.13.12.2-.37.24-.73.47-1.22.78.42.13.71.21,1.01.31-.94.79-2.09.73-2.44-.26h0Z"/><path class="cls-1" d="m15.49,97.45c.62-.7,1.2-1.43,1.87-2.08.25-.25.68-.32,1.12-.3-.85,1.02-1.6,2.11-3.01,2.36,0,0,.02.02.02.02Z"/><path class="cls-1" d="m90.43,121.79c-1.06.58-2.12,1.16-3.19,1.75-.12-.81,1.7-1.97,3.19-1.75Z"/><path class="cls-1" d="m110.35,27.57c.32-.98,2.4-2.1,3.56-1.73-1.3.63-2.37,1.15-3.56,1.73Z"/><path class="cls-1" d="m97.85,36.67c.69-.03,1.37-.06,2.19-.1-1.13.6-2.21,1.18-3.29,1.76-.05-.05-.1-.09-.15-.14.42-.51.85-1.02,1.27-1.53h-.02Z"/><path class="cls-1" d="m128.53,99.36c.6-.43,1.16-.92,1.8-1.27.6-.32,1.29-.48,2.05-.51-1.24.66-2.48,1.32-3.72,1.98-.04-.07-.08-.14-.13-.21h0Z"/><path class="cls-1" d="m95.64,118.26c-.82.61-1.64,1.22-2.47,1.82.14-1.46,1.32-1.63,2.28-2.08.06.08.12.17.19.25h0Z"/><path class="cls-1" d="m102.43,122.53c1.09-.34,2.17-.68,3.25-1.03.04.1.08.21.12.31-1.06.41-2.13.82-3.2,1.23-.06-.17-.12-.34-.17-.5h0Z"/><path class="cls-1" d="m63.49,125.05c-1.07.59-2.14,1.19-3.21,1.78.16-.75,1.99-1.95,3.21-1.78Z"/><path class="cls-1" d="m106.82,22.56c1.13-.55,2.26-1.09,3.39-1.64.06.13.13.25.19.38-1.13.51-2.26,1.01-3.39,1.52-.06-.09-.12-.17-.19-.26Z"/><path class="cls-1" d="m79,36.08c-1.17.59-2.35,1.19-3.52,1.78-.06-.12-.12-.24-.18-.36,1.19-.57,2.37-1.14,3.55-1.71.05.1.1.19.14.28h0Z"/><path class="cls-1" d="m125.52,114.96c-1.01.29-2.02.58-3.03.86-.04-.13-.08-.27-.12-.4,1.01-.31,2.02-.61,3.03-.92.04.15.08.3.12.46Z"/><path class="cls-1" d="m143.8,98.44c.89-.39,1.78-.77,2.67-1.16.06.11.11.22.17.33-.6.38-1.2.76-1.94,1.22,0-.28,0-.4,0-.57-.32.05-.63.1-.94.15l.02.02h.01Z"/><path class="cls-1" d="m67.09,122.5c-1,.68-2,1.35-3,2.03-.05-.07-.11-.15-.16-.22.73-1.05,1.96-1.41,2.98-2.06.06.08.12.17.18.25Z"/><path class="cls-1" d="m115.78,24.24c1.1-.49,2.2-.98,3.29-1.47.05.09.1.18.15.27-.53.27-1.05.57-1.59.81-.56.24-1.15.43-1.73.64-.04-.08-.09-.17-.13-.25h0Z"/><path class="cls-1" d="m135.26,111.4c-.25.96-1.17.79-1.86.99-.06-.1-.11-.2-.17-.3.6-.35,1.2-.7,1.8-1.05.08.12.16.23.24.35h-.01Z"/><path class="cls-1" d="m85.23,125.26c-.08-1.3.52-1.86,1.74-1.47-.62.53-1.14.97-1.74,1.47Z"/><path class="cls-1" d="m93.3,106.69c-.95.58-1.89,1.16-2.84,1.74-.08-.13-.16-.25-.23-.38.47-.28.92-.58,1.4-.84.5-.27,1.02-.49,1.53-.74.05.07.1.14.15.21h-.01Z"/><path class="cls-1" d="m72.59,39.6c.09.21.18.43.27.65-.05.05-.1.11-.16.16-.35-.21-.7-.43-1.3-.8.92-.41,1.58-.71,2.24-1,.05.08.1.16.15.24-.39.24-.78.49-1.2.75Z"/><path class="cls-1" d="m28.19,88.17c-.64,1.02-1.2,2.15-2.61,2.21.91-.77,1.76-1.49,2.61-2.21Z"/><path class="cls-1" d="m101.72,114.21c-.96.65-1.93,1.3-2.9,1.96-.07-.1-.14-.2-.21-.3.48-.32.95-.65,1.43-.96.49-.32,1-.61,1.5-.92.06.07.11.15.17.22h.01Z"/><path class="cls-1" d="m73.91,56.05c-.76.48-1.53.96-2.31,1.46-.03-.31.7-.86,2.17-1.67.05.07.1.15.14.22h0Z"/><path class="cls-1" d="m95.88,27.86c.77-.92,1.7-1.51,2.9-1.51-.97.5-1.93,1.01-2.9,1.51Z"/><path class="cls-1" d="m122.61,102.55c-1.04.54-2.07,1.09-3.17,1.66.31-.65,1.69-1.41,3.17-1.66Z"/><path class="cls-1" d="m90.66,121.25c.25-.32.4-.62.64-.79.3-.22.67-.36,1.03-.47.12-.04.31.13.47.21-.12.16-.2.41-.36.47-.49.2-1.01.34-1.78.59h0Z"/><path class="cls-1" d="m138.53,94.37c-.71.38-1.41.76-2.12,1.15-.05-.1-.11-.2-.16-.3.71-.39,1.43-.78,2.15-1.16.04.11.09.22.13.32h0Z"/><path class="cls-1" d="m73.06,118.8c-.65.37-1.31.73-1.96,1.1-.06-.1-.13-.2-.19-.29.63-.4,1.27-.8,1.9-1.21.09.13.17.27.25.4Z"/><path class="cls-1" d="m96.34,104.14c-.09.38-.13.7-.27.97-.04.07-.41-.04-.71-.08.56-.82,1.1-1.32,1.97-1.05v.33c-.35-.06-.7-.12-1.01-.17h.02Z"/><path class="cls-1" d="m136.42,102.2c.85-.42,1.71-.84,2.56-1.27.05.11.1.21.16.32-.86.42-1.72.84-2.58,1.26-.05-.11-.09-.21-.14-.32h0Z"/><path class="cls-1" d="m65.75,46.78c.77-.26,1.53-.53,2.3-.79l.12.33c-.75.27-1.5.54-2.26.81-.05-.12-.1-.23-.16-.35Z"/><path class="cls-1" d="m78.15,115.67c-.78.48-1.55.96-2.33,1.45-.06-.09-.12-.19-.18-.28.77-.49,1.54-.98,2.31-1.47.06.1.13.2.19.3h.01Z"/><path class="cls-1" d="m92.49,126.11c.62-1.21,1.62-1.34,2.55-1.57-.76.47-1.53.94-2.55,1.57Z"/><path class="cls-1" d="m128.9,106.27c-.69.31-1.38.62-2.07.94-.04-.09-.08-.19-.13-.28.68-.35,1.35-.7,2.03-1.05.06.13.12.27.17.4h0Z"/><path class="cls-1" d="m115.23,106.62c-.61.35-1.22.7-1.83,1.05.12-1.17,1.15-.83,1.67-1.32.05.09.11.18.16.27Z"/><path class="cls-1" d="m146.41,9.67c.62-.3,1.24-.59,1.86-.89.06.12.12.23.18.35-.63.31-1.25.62-1.87.93-.06-.13-.11-.26-.17-.39Z"/><path class="cls-1" d="m167.96,34.14c-.11-1.03.62-1.04,1.27-1.13.06.1.13.19.19.29-.49.27-.99.55-1.48.82l.02.02h0Z"/><path class="cls-1" d="m56.15,74.86c.52-.32,1.04-.63,1.55-.95.07.12.15.24.22.36-.52.3-1.05.6-1.57.9-.07-.1-.13-.21-.2-.32h0Z"/><path class="cls-1" d="m73.39,129.76c.76-.36,1.53-.73,2.29-1.09.03.07.06.13.09.19-.75.4-1.51.81-2.26,1.21-.04-.1-.08-.21-.12-.32h0Z"/><path class="cls-1" d="m143.78,98.42c.11,1-.67,1.03-1.33,1.43-.02-1.15.82-1.1,1.35-1.41l-.02-.02Z"/><path class="cls-1" d="m74.53,99.09c.79-.42,1.6-.8,2.35-1.28.58-.37,1.03-.96,1.63-1.28.95-.51,1.98-.86,2.96-1.31.17-.08.25-.52.38-.52.36,0,.73.13,1.09.21-.1.38-.08.95-.33,1.12-1.46,1.01-2.96,1.96-4.5,2.84-.48.28-1.02.33-1.46.84-.71.82-1.51.49-2.1-.62h-.02Z"/><path class="cls-1" d="m88.52,96.81c-.24-.92.42-1.16.9-1.33,1-.38,1.94-.68,2.61-1.65.29-.41,1.08-.47,1.72-.72.11.5.07.76-.54,1.07-1.44.72-2.78,1.64-4.16,2.47-.14.08-.3.1-.53.18v-.02Z"/><path class="cls-1" d="m95.99,91.87c.52-1.19,1.47-1.8,3.09-1.75-1.19.68-1.8,1.76-3.11,1.73,0,0,.02.02.02.02Z"/><path class="cls-1" d="m95.97,91.85c-.3,1.19-.96,1.65-1.96,1.32.17-.78.5-1.3,1.44-1.12.16.03.36-.11.54-.17l-.02-.02h0Z"/><path class="cls-1" d="m103.02,87.77c-1.14.72-2.06,1.29-2.98,1.87-.06-.09-.12-.18-.17-.28.7-.94,1.58-1.58,3.16-1.59h-.01Z"/><path class="cls-1" d="m92.71,80.35c.11.12.21.25.38.45-.75.54-1.49,1.07-2.22,1.59-.1-.11-.2-.22-.3-.33.31-.29.62-.6.95-.87.38-.31.8-.58,1.2-.87h-.02s.01.03.01.03Z"/><path class="cls-1" d="m92.49,91.9c-.25.41-.51.82-.76,1.22-.1,0-.19-.01-.29-.02-.05-.39-.25-.86-.09-1.14.13-.23.67-.24,1.02-.35.04.09.08.18.12.28h0Z"/><path class="cls-1" d="m118.73,47.12c.68-.42,1.34-.87,2.04-1.24.49-.26,1.03-.47,1.58-.58.12-.02.34.46.55.75-1.23.61-2.34,1.17-3.48,1.74-.27-.27-.48-.48-.7-.7v.02s0,.01,0,.01Z"/><path class="cls-1" d="m107.04,56.37c-.5.65-1.01,1.3-1.89,1.41-.06-.09-.13-.18-.19-.27.62-.48,1.24-.96,1.86-1.44.08.1.15.2.23.3h-.01Z"/></g></svg>